<svg xmlns="http://www.w3.org/2000/svg" width="1035" height="397" viewBox="0 0 1035 397">
<g>
<path d="M 195.65 294.75 L 189.68 301.00 L 165.90 301.00 C149.93,301.00 141.90,300.64 141.45,299.92 C141.08,299.32 141.87,297.64 143.19,296.17 C144.52,294.70 150.24,288.44 155.91,282.25 L 166.22 271.00 L 212.00 271.00 L 212.00 273.35 C212.00,274.63 211.05,276.55 209.88,277.60 C208.72,278.64 206.38,281.52 204.69,284.00 C203.00,286.48 198.93,291.31 195.65,294.75 ZM 294.53 295.84 C293.06,298.11 291.73,298.98 289.71,298.99 C287.26,299.00 287.05,298.77 287.97,297.06 C288.54,295.99 289.46,294.84 290.00,294.50 C290.54,294.16 294.21,289.38 298.15,283.86 C305.00,274.27 308.58,271.24 311.67,272.43 C312.56,272.77 311.62,274.34 308.75,277.31 C303.69,282.51 301.51,286.29 302.34,288.43 C302.86,289.80 306.33,290.00 329.85,290.00 C352.78,290.00 356.94,289.77 358.02,288.47 C359.68,286.48 358.50,283.92 353.10,277.82 C350.70,275.11 349.39,272.88 349.99,272.51 C352.14,271.18 355.05,273.32 359.45,279.48 C361.95,282.98 364.57,286.45 365.27,287.18 C365.96,287.90 368.21,290.86 370.27,293.75 L 374.00 299.00 L 371.25 299.01 C369.41,299.02 367.67,298.03 366.00,296.01 L 363.50 293.01 L 330.03 292.86 L 296.56 292.70 ZM 452.72 296.00 C449.99,299.36 448.50,299.50 422.00,298.97 L 395.50 298.45 L 417.13 298.22 C433.41,298.06 439.62,297.64 442.25,296.54 C445.96,294.99 447.52,291.85 446.01,289.01 C445.21,287.53 443.10,287.40 426.06,287.81 C412.28,288.14 407.00,287.95 407.00,287.13 C407.00,286.51 405.90,286.00 404.55,286.00 C398.23,286.00 394.70,281.61 396.62,276.15 C397.27,274.30 398.51,273.37 401.01,272.86 C404.86,272.06 407.44,273.41 404.10,274.47 C402.41,275.00 402.12,275.67 402.62,277.82 C403.75,282.70 405.01,283.00 424.57,283.00 C434.57,283.00 444.15,283.28 445.86,283.62 C452.14,284.88 456.04,291.91 452.72,296.00 ZM 559.00 295.20 C559.00,298.88 558.89,299.00 555.50,299.00 L 552.00 299.00 L 552.00 286.02 C552.00,273.11 552.01,273.03 554.43,272.43 C557.77,271.59 561.56,272.84 560.10,274.30 C558.93,275.47 558.59,283.77 559.61,286.42 C560.13,287.78 562.78,288.00 578.86,288.00 C595.50,287.99 597.84,287.79 600.66,286.07 C602.40,285.01 604.12,283.18 604.49,282.02 C605.22,279.72 602.88,275.27 600.45,274.34 C597.71,273.29 600.04,272.15 603.13,273.04 C607.17,274.20 608.93,276.65 608.97,281.18 C609.00,284.96 606.33,288.13 601.92,289.53 C598.62,290.57 599.36,292.12 605.38,296.77 L 608.27 299.00 L 605.09 299.00 C603.22,299.00 601.01,298.13 599.71,296.88 C598.49,295.71 595.74,293.46 593.60,291.88 C589.74,289.03 589.57,289.00 575.55,289.00 C565.88,289.00 561.02,289.38 560.20,290.20 C559.54,290.86 559.00,293.11 559.00,295.20 ZM 642.30 297.81 C638.13,302.19 637.39,302.53 635.11,301.09 C633.04,299.78 634.31,296.38 639.72,288.74 C642.35,285.02 645.40,280.55 646.50,278.81 C648.80,275.17 654.56,271.62 656.78,272.47 C658.04,272.95 657.90,273.48 655.98,275.53 C654.70,276.89 653.93,278.00 654.28,278.00 C654.62,278.00 653.79,279.20 652.43,280.67 C649.47,283.87 648.32,287.72 649.87,289.27 C650.58,289.98 654.34,290.30 660.00,290.14 C667.25,289.94 669.00,290.17 669.00,291.32 C669.00,292.45 666.61,292.84 657.64,293.18 L 646.28 293.62 ZM 266.59 300.23 C264.42,301.69 261.00,301.06 261.00,299.20 C261.00,297.36 268.70,286.82 277.44,276.71 C281.60,271.91 282.91,271.00 285.69,271.00 C287.51,271.00 289.00,271.43 289.00,271.95 C289.00,274.14 270.30,297.75 266.59,300.23 ZM 214.03 296.58 C209.97,300.91 205.94,302.34 204.47,299.96 C203.66,298.64 205.13,296.41 213.11,286.84 C216.63,282.63 220.99,277.34 222.81,275.09 C225.24,272.08 226.85,271.00 228.89,271.00 C230.42,271.00 231.95,271.28 232.29,271.63 C233.12,272.45 230.60,277.26 228.40,279.07 C227.45,279.86 224.76,283.12 222.42,286.33 C220.08,289.54 216.31,294.15 214.03,296.58 ZM 229.81 299.60 C226.34,301.39 225.08,301.37 224.36,299.49 C223.62,297.58 224.78,295.84 235.99,282.13 C244.52,271.68 245.39,270.91 248.33,271.19 C252.80,271.63 252.09,273.99 245.09,281.97 C241.94,285.56 237.83,290.68 235.94,293.35 C234.06,296.02 231.30,298.83 229.81,299.60 ZM 252.14 296.75 C250.32,299.34 249.17,300.00 246.43,300.00 C244.54,300.00 243.00,299.87 243.00,299.71 C243.00,298.49 247.35,291.39 250.55,287.38 C261.71,273.41 264.14,271.00 267.10,271.00 C271.83,271.00 270.71,274.01 262.21,284.18 C257.92,289.31 253.39,294.96 252.14,296.75 ZM 691.85 296.24 C693.23,297.75 694.16,299.11 693.93,299.26 C692.34,300.31 687.65,298.36 685.28,295.66 C682.72,292.75 682.02,292.48 677.73,292.83 C673.90,293.13 673.00,292.90 673.00,291.60 C673.00,290.66 673.84,290.00 675.03,290.00 C679.87,290.00 678.41,284.87 671.45,277.39 C667.00,272.61 666.90,271.72 670.90,272.62 C673.97,273.31 678.52,278.02 684.80,287.00 C687.30,290.58 690.47,294.73 691.85,296.24 ZM 504.15 287.00 C504.01,298.28 503.88,299.00 502.00,299.00 C500.12,299.00 500.00,298.33 500.00,287.83 C500.00,278.89 499.67,276.30 498.36,274.85 C496.89,273.22 496.89,272.98 498.29,272.44 C500.68,271.52 504.51,272.35 504.40,273.75 C504.35,274.44 504.23,280.40 504.15,287.00 Z" fill="rgb(28,28,28)"/>
<path d="M 294.53 295.84 L 296.56 292.70 L 330.03 292.86 L 355.65 292.98 L 330.80 293.21 L 300.09 293.50 L 296.25 297.25 C293.46,299.98 291.56,301.00 289.27,301.00 C285.41,301.00 284.27,299.46 286.40,297.11 C287.28,296.14 288.00,295.08 288.00,294.75 C288.00,293.96 300.46,277.37 304.14,273.25 L 307.05 270.00 L 329.98 270.00 C343.82,270.00 353.82,270.41 355.20,271.05 C356.47,271.62 359.27,274.66 361.43,277.80 C363.59,280.93 366.97,285.52 368.93,288.00 C376.24,297.21 377.24,299.00 375.95,300.56 C373.51,303.50 369.34,302.29 365.30,297.46 L 361.58 293.00 L 363.50 293.01 L 366.00 296.01 C367.67,298.03 369.41,299.02 371.25,299.01 L 374.00 299.00 L 370.27 293.75 C368.21,290.86 365.96,287.90 365.27,287.18 C364.57,286.45 361.95,282.98 359.45,279.48 C355.05,273.32 352.14,271.18 349.99,272.51 C349.39,272.88 350.70,275.11 353.10,277.82 C358.50,283.92 359.68,286.48 358.02,288.47 C356.94,289.77 352.78,290.00 329.85,290.00 C306.33,290.00 302.86,289.80 302.34,288.43 C301.51,286.29 303.69,282.51 308.75,277.31 C311.62,274.34 312.56,272.77 311.67,272.43 C308.58,271.24 305.00,274.27 298.15,283.86 C294.21,289.38 290.54,294.16 290.00,294.50 C289.46,294.84 288.54,295.99 287.97,297.06 C287.05,298.77 287.26,299.00 289.71,298.99 C291.73,298.98 293.06,298.11 294.53,295.84 ZM 559.00 295.20 C559.00,293.11 559.54,290.86 560.20,290.20 C561.02,289.38 565.88,289.00 575.55,289.00 C589.57,289.00 589.74,289.03 593.60,291.88 C595.74,293.46 598.49,295.71 599.71,296.88 C601.01,298.13 603.22,299.00 605.09,299.00 L 608.27 299.00 L 605.38 296.77 C599.36,292.12 598.62,290.57 601.92,289.53 C606.33,288.13 609.00,284.96 608.97,281.18 C608.93,276.65 607.17,274.20 603.13,273.04 C600.04,272.15 597.71,273.29 600.45,274.34 C602.88,275.27 605.22,279.72 604.49,282.02 C604.12,283.18 602.40,285.01 600.66,286.07 C597.84,287.79 595.50,287.99 578.86,288.00 C562.78,288.00 560.13,287.78 559.61,286.42 C558.59,283.77 558.93,275.47 560.10,274.30 C561.56,272.84 557.77,271.59 554.43,272.43 C553.36,272.70 552.77,272.86 552.43,274.06 L 552.50 270.50 L 577.77 270.23 C605.64,269.94 607.54,270.27 610.48,275.97 C612.98,280.79 612.41,284.21 608.50,288.00 C606.58,289.87 605.00,291.89 605.00,292.51 C605.00,293.12 606.35,294.62 608.00,295.84 C611.30,298.28 611.86,300.46 609.42,301.39 C606.02,302.70 603.23,301.84 597.97,297.86 C589.64,291.56 587.63,291.00 573.53,291.00 L 561.00 291.00 L 561.00 295.30 C561.00,297.67 560.46,300.14 559.80,300.80 C558.20,302.40 553.07,302.33 552.44,300.70 C552.37,300.52 552.31,299.92 552.27,299.00 L 555.50 299.00 C558.89,299.00 559.00,298.88 559.00,295.20 ZM 691.85 296.24 C690.47,294.73 687.30,290.58 684.80,287.00 C678.52,278.02 673.97,273.31 670.90,272.62 C666.90,271.72 667.00,272.61 671.45,277.39 C678.41,284.87 679.87,290.00 675.03,290.00 C673.84,290.00 673.00,290.66 673.00,291.60 C673.00,292.41 673.35,292.80 674.54,292.91 L 663.14 293.15 L 652.93 293.36 L 657.64 293.18 C666.61,292.84 669.00,292.45 669.00,291.32 C669.00,290.17 667.25,289.94 660.00,290.14 C654.34,290.30 650.58,289.98 649.87,289.27 C648.32,287.72 649.47,283.87 652.43,280.67 C653.79,279.20 654.62,278.00 654.28,278.00 C653.93,278.00 654.70,276.89 655.98,275.53 C657.90,273.48 658.04,272.95 656.78,272.47 C654.56,271.62 648.80,275.17 646.50,278.81 C646.12,279.41 645.50,280.35 644.75,281.46 C644.91,281.17 645.00,280.98 645.00,280.91 C645.00,280.35 649.02,274.83 652.03,271.25 C653.67,269.30 671.92,269.56 674.80,271.57 C676.04,272.44 681.54,279.02 687.04,286.20 C697.66,300.07 698.24,302.00 691.79,302.00 C689.58,302.00 687.68,300.83 684.35,297.40 L 679.88 292.80 L 677.37 292.85 C677.48,292.84 677.60,292.84 677.73,292.83 C682.02,292.48 682.72,292.75 685.28,295.66 C687.65,298.36 692.34,300.31 693.93,299.26 C694.16,299.11 693.23,297.75 691.85,296.24 ZM 305.46 286.93 C306.11,287.98 351.70,288.44 354.36,287.42 C356.75,286.50 356.40,284.88 352.79,280.18 L 349.57 276.00 L 313.07 276.00 L 309.58 279.06 C306.01,282.19 304.41,285.24 305.46,286.93 ZM 505.48 298.75 C505.09,300.43 504.25,301.00 502.15,301.00 C500.60,301.00 499.03,300.70 498.67,300.33 C498.30,299.97 498.00,294.34 498.00,287.83 L 498.00 276.00 L 486.25 275.98 C473.80,275.97 471.58,275.40 472.16,272.38 C472.51,270.60 474.04,270.49 501.13,270.23 C530.85,269.96 533.30,270.27 530.98,274.03 C530.30,275.14 527.17,275.62 518.29,276.00 L 506.50 276.50 L 506.25 286.50 C506.12,292.00 505.77,297.51 505.48,298.75 ZM 560.67 286.33 C561.03,286.70 569.51,287.00 579.51,287.00 C595.83,287.00 597.91,286.81 599.85,285.13 C602.43,282.89 602.79,277.52 600.42,276.61 C599.55,276.27 590.56,276.00 580.45,276.00 C563.30,276.00 562.00,276.13 561.04,277.93 C559.87,280.10 559.65,285.31 560.67,286.33 ZM 409.63 287.81 L 398.82 287.50 L 396.41 284.69 C393.08,280.81 393.26,276.59 396.92,272.92 L 399.85 270.00 L 424.82 270.00 C445.32,270.00 449.88,270.25 450.32,271.40 C450.62,272.17 450.33,273.52 449.68,274.39 C448.68,275.74 445.24,276.02 426.61,276.24 C406.73,276.48 404.61,276.67 403.61,278.31 C403.33,278.76 403.16,279.14 403.10,279.47 C402.91,278.99 402.76,278.44 402.62,277.82 C402.12,275.67 402.41,275.00 404.10,274.47 C407.44,273.41 404.86,272.06 401.01,272.86 C398.51,273.37 397.27,274.30 396.62,276.15 C394.70,281.61 398.23,286.00 404.55,286.00 C405.90,286.00 407.00,286.51 407.00,287.13 C407.00,287.45 407.81,287.68 409.63,287.81 ZM 450.81 297.88 L 447.62 301.00 L 422.01 301.00 C396.19,301.00 393.44,300.64 394.69,297.38 C395.11,296.26 399.62,296.00 418.41,296.00 C435.11,296.00 441.94,295.66 442.80,294.80 C443.81,293.79 444.54,289.24 443.75,288.89 C443.61,288.83 433.45,288.49 421.16,288.14 L 414.87 287.96 C417.71,287.97 421.40,287.92 426.06,287.81 C443.10,287.40 445.21,287.53 446.01,289.01 C447.52,291.85 445.96,294.99 442.25,296.54 C439.62,297.64 433.41,298.06 417.13,298.22 L 395.50 298.45 L 422.00 298.97 C443.38,299.40 448.49,299.39 451.09,297.60 C451.00,297.70 450.91,297.79 450.81,297.88 ZM 651.48 286.97 C652.26,288.23 674.65,288.37 675.42,287.12 C676.00,286.20 671.42,279.40 668.74,277.19 C667.78,276.40 665.27,276.01 662.39,276.19 C657.98,276.48 657.37,276.86 654.24,281.22 C652.37,283.82 651.14,286.41 651.48,286.97 ZM 504.15 287.00 C504.23,280.40 504.35,274.44 504.40,273.75 C504.51,272.35 500.68,271.52 498.29,272.44 C496.89,272.98 496.89,273.22 498.36,274.85 C499.67,276.30 500.00,278.89 500.00,287.83 C500.00,298.33 500.12,299.00 502.00,299.00 C503.88,299.00 504.01,298.28 504.15,287.00 ZM 449.43 285.08 C450.18,285.53 450.81,286.09 451.49,286.76 C453.27,288.55 454.09,290.41 453.93,292.32 C453.85,289.66 452.11,286.82 449.43,285.08 ZM 424.57 283.00 C432.51,283.00 437.81,283.05 441.51,283.30 C437.41,283.12 431.08,283.00 424.57,283.00 ZM 411.28 282.80 C414.29,282.94 418.55,283.00 424.57,283.00 C418.61,283.00 414.35,282.97 411.28,282.80 Z" fill="rgb(76,76,76)"/>
<path d="M 599.20 374.00 C598.21,374.00 596.97,374.38 596.45,374.85 C595.92,375.33 593.52,374.97 590.98,374.03 C571.77,366.93 558.05,353.96 552.51,337.67 C552.30,337.05 552.09,336.48 551.90,335.95 C551.18,333.97 550.66,332.55 551.09,331.54 C552.18,328.96 559.36,328.97 584.76,328.99 C587.45,329.00 590.35,329.00 593.47,329.00 C620.49,329.00 635.00,329.35 635.00,330.00 C635.00,330.65 646.39,331.00 667.17,331.00 C684.86,331.00 699.13,331.20 698.88,331.45 C698.63,331.70 679.61,332.00 656.62,332.12 C622.85,332.29 614.71,332.59 614.30,333.67 C613.62,335.44 611.36,335.37 610.66,333.55 C610.22,332.41 607.99,332.12 600.18,332.20 C591.10,332.29 590.30,332.45 590.74,334.12 C591.19,335.82 590.18,335.96 576.37,336.22 C562.75,336.48 561.50,336.66 561.16,338.38 C560.70,340.79 562.93,345.00 564.67,345.00 C565.40,345.00 566.00,345.44 566.00,345.98 C566.00,346.52 567.04,347.22 568.32,347.54 C570.20,348.02 570.56,348.66 570.22,350.96 C569.90,353.14 570.58,354.59 573.15,357.26 C577.18,361.43 584.85,366.00 587.84,366.00 C589.03,366.00 590.00,366.62 590.00,367.38 C590.00,368.77 593.17,370.33 598.25,371.44 C601.31,372.11 602.01,374.00 599.20,374.00 ZM 626.00 377.50 C626.00,378.72 624.39,379.00 617.50,379.00 C610.79,379.00 609.00,378.70 609.00,377.57 C609.00,376.78 608.10,375.85 607.00,375.50 C604.01,374.55 604.59,373.00 607.94,373.00 C609.56,373.00 611.16,372.55 611.50,372.00 C612.52,370.35 627.54,370.75 628.96,372.46 C630.35,374.13 629.55,376.00 627.44,376.00 C626.65,376.00 626.00,376.67 626.00,377.50 ZM 647.00 370.12 C647.00,370.61 646.56,371.00 646.03,371.00 C645.50,371.00 645.32,370.33 645.64,369.50 C645.95,368.67 647.10,368.00 648.18,368.00 C650.24,368.00 653.00,365.82 653.00,364.19 C653.00,362.56 658.84,360.62 660.25,361.79 C660.94,362.36 662.85,363.00 664.50,363.23 C667.34,363.61 667.24,363.70 662.75,365.02 C660.14,365.79 658.00,367.00 658.00,367.71 C658.00,369.02 657.38,369.15 650.75,369.21 C648.69,369.23 647.00,369.64 647.00,370.12 ZM 725.50 332.00 C723.19,332.99 715.73,332.99 708.50,332.00 L 703.50 331.31 L 708.75 331.16 C711.64,331.07 714.00,330.55 714.00,330.00 C714.00,329.45 716.25,329.00 719.00,329.00 C721.75,329.00 724.00,329.45 724.00,330.00 C724.00,330.55 724.79,331.03 725.75,331.07 C727.25,331.13 727.21,331.27 725.50,332.00 ZM 850.00 363.00 C852.25,363.72 852.12,363.81 848.81,363.90 C846.78,363.96 844.84,363.55 844.50,363.00 C844.16,362.45 844.58,362.00 845.44,362.00 C846.30,362.00 847.00,361.55 847.00,361.00 C847.00,360.45 848.35,360.00 850.00,360.00 C853.76,360.00 853.99,361.96 850.25,362.10 L 847.50 362.20 ZM 640.00 373.44 C640.00,374.23 639.55,375.16 639.00,375.50 C638.45,375.84 638.00,375.64 638.00,375.06 C638.00,374.48 637.30,374.00 636.44,374.00 C635.58,374.00 635.16,373.55 635.50,373.00 C636.45,371.47 640.00,371.81 640.00,373.44 ZM 887.00 382.28 C887.00,383.10 886.10,384.00 885.00,384.29 C883.70,384.63 883.00,384.32 883.00,383.41 C883.00,382.63 883.19,382.00 883.42,382.00 C883.65,382.00 884.55,381.73 885.42,381.39 C886.42,381.01 887.00,381.33 887.00,382.28 ZM 890.97 375.84 C890.95,376.20 890.33,377.30 889.59,378.27 C888.31,379.96 888.22,379.95 887.74,378.11 C887.39,376.79 887.83,376.02 889.12,375.68 C890.15,375.41 890.99,375.48 890.97,375.84 ZM 883.50 378.00 C883.84,378.55 883.19,379.00 882.06,379.00 C880.93,379.00 880.00,378.55 880.00,378.00 C880.00,377.45 880.65,377.00 881.44,377.00 C882.23,377.00 883.16,377.45 883.50,378.00 Z" fill="rgb(156,56,47)"/>
<path d="M 599.20 374.00 C602.01,374.00 601.31,372.11 598.25,371.44 C593.17,370.33 590.00,368.77 590.00,367.38 C590.00,366.88 589.58,366.44 588.95,366.20 C591.24,366.66 594.71,367.67 597.00,368.54 C601.97,370.43 629.40,371.91 632.68,370.46 C633.68,370.02 636.30,369.12 638.50,368.46 C640.70,367.80 645.65,365.99 649.50,364.45 L 656.50 361.63 L 657.24 361.63 C655.21,362.07 653.00,363.19 653.00,364.19 C653.00,365.82 650.24,368.00 648.18,368.00 C647.10,368.00 645.95,368.67 645.64,369.50 C645.32,370.33 645.50,371.00 646.03,371.00 C646.56,371.00 647.00,370.61 647.00,370.12 C647.00,369.64 648.69,369.23 650.75,369.21 C657.38,369.15 658.00,369.02 658.00,367.71 C658.00,367.00 660.14,365.79 662.75,365.02 C667.24,363.70 667.34,363.61 664.50,363.23 C662.85,363.00 660.94,362.36 660.25,361.79 C660.16,361.72 660.06,361.66 659.94,361.61 L 759.50 360.89 L 766.06 360.85 C807.20,360.55 831.97,360.37 847.27,360.59 C847.10,360.71 847.00,360.85 847.00,361.00 C847.00,361.55 846.30,362.00 845.44,362.00 C844.58,362.00 844.16,362.45 844.50,363.00 C844.84,363.55 846.78,363.96 848.81,363.90 C852.12,363.81 852.25,363.72 850.00,363.00 L 847.50 362.20 L 850.25 362.10 C852.50,362.02 853.32,361.28 852.79,360.70 C867.82,361.08 871.29,362.04 874.02,364.03 C874.66,364.50 875.25,365.03 875.95,365.61 C877.65,367.04 880.15,370.64 881.50,373.60 C882.86,376.57 884.21,379.00 884.50,379.00 C885.73,379.00 888.99,372.28 889.00,369.74 C889.00,368.22 889.90,366.21 891.00,365.27 C893.25,363.34 893.82,356.44 891.79,355.76 C891.02,355.51 890.56,353.06 890.54,349.01 C890.51,344.85 890.07,342.52 889.25,342.25 C888.56,342.02 888.00,341.33 888.00,340.72 C888.00,339.94 888.37,339.97 889.20,340.80 C889.86,341.46 891.21,342.00 892.20,342.00 C893.27,342.00 894.00,342.73 894.00,343.80 C894.00,344.79 894.56,346.16 895.25,346.85 C896.96,348.56 896.81,367.01 895.03,373.50 C894.28,376.25 892.23,380.75 890.47,383.50 C886.82,389.22 882.01,392.61 880.16,390.76 C879.52,390.12 879.00,388.10 879.00,386.27 C879.00,381.51 874.67,373.60 870.26,370.31 C868.19,368.77 865.91,366.94 865.18,366.25 C863.62,364.78 858.38,364.58 857.52,365.96 C857.15,366.56 821.39,366.94 761.48,366.98 C701.64,367.02 665.07,367.40 663.45,368.02 C662.03,368.56 659.80,369.00 658.49,369.00 C657.18,369.00 654.63,369.88 652.81,370.95 C649.75,372.75 644.53,374.43 633.00,377.32 C631.39,377.72 628.79,378.01 625.72,378.18 C625.92,377.99 626.00,377.77 626.00,377.50 C626.00,376.67 626.65,376.00 627.44,376.00 C629.55,376.00 630.35,374.13 628.96,372.46 C627.54,370.75 612.52,370.35 611.50,372.00 C611.16,372.55 609.56,373.00 607.94,373.00 C604.59,373.00 604.01,374.55 607.00,375.50 C608.10,375.85 609.00,376.78 609.00,377.57 C609.00,377.77 609.06,377.94 609.19,378.10 C606.35,377.91 603.83,377.64 602.00,377.28 C591.94,375.27 582.58,371.23 574.67,365.73 C579.51,369.02 584.98,371.81 590.98,374.03 C593.52,374.97 595.92,375.33 596.45,374.85 C596.97,374.38 598.21,374.00 599.20,374.00 ZM 570.19 352.53 C570.12,352.03 570.14,351.52 570.22,350.96 C570.56,348.66 570.20,348.02 568.32,347.54 C567.04,347.22 566.00,346.52 566.00,345.98 C566.00,345.44 565.40,345.00 564.67,345.00 C564.02,345.00 563.29,344.40 562.67,343.53 C564.92,344.98 579.37,345.08 718.62,345.28 C862.17,345.48 873.50,345.62 873.79,347.16 C873.97,348.09 873.32,349.07 872.31,349.38 C871.31,349.68 810.88,350.19 738.00,350.51 C665.12,350.84 598.30,351.30 589.50,351.53 C580.70,351.76 572.71,351.97 571.75,351.98 C570.90,351.99 570.38,352.17 570.19,352.53 ZM 586.82 335.91 C590.72,335.66 591.03,335.21 590.74,334.12 C590.30,332.45 591.10,332.29 600.18,332.20 C607.99,332.12 610.22,332.41 610.66,333.55 C611.36,335.37 613.62,335.44 614.30,333.67 C614.71,332.59 622.85,332.29 656.62,332.12 C679.61,332.00 698.63,331.70 698.88,331.45 C699.13,331.20 684.86,331.00 667.17,331.00 C646.39,331.00 635.00,330.65 635.00,330.00 C635.00,329.35 620.49,329.00 593.47,329.00 C590.35,329.00 587.45,329.00 584.76,328.99 L 584.75 328.99 C580.17,328.99 576.18,328.99 572.71,329.00 C583.62,328.83 599.71,328.85 623.22,328.78 C662.42,328.65 696.97,328.59 700.00,328.63 C703.03,328.66 720.69,328.77 739.25,328.85 C758.53,328.94 773.00,329.39 773.00,329.90 C773.00,331.61 766.69,333.00 758.93,333.00 C753.97,333.00 751.03,333.41 750.78,334.15 C750.50,335.00 733.20,335.29 683.95,335.25 C647.40,335.22 604.90,335.49 589.50,335.85 ZM 829.45 332.00 C821.78,332.01 810.55,332.28 804.50,332.61 C793.72,333.21 791.00,332.63 791.00,329.78 C791.00,328.69 841.23,330.00 842.45,331.13 C843.00,331.63 837.46,332.00 829.45,332.00 ZM 884.52 333.39 C885.21,335.38 885.70,336.99 885.63,336.97 C885.56,336.95 884.25,336.01 882.73,334.87 C881.18,333.71 879.25,333.07 878.35,333.42 C876.47,334.14 874.00,332.38 874.00,330.31 C874.00,329.51 874.68,328.17 875.52,327.34 C876.87,325.99 877.36,326.03 880.16,327.80 C881.97,328.95 883.80,331.29 884.52,333.39 ZM 725.50 332.00 C727.21,331.27 727.25,331.13 725.75,331.07 C724.79,331.03 724.00,330.55 724.00,330.00 C724.00,329.45 721.75,329.00 719.00,329.00 C716.25,329.00 714.00,329.45 714.00,330.00 C714.00,330.55 711.64,331.07 708.75,331.16 L 703.50 331.31 L 708.50 332.00 C715.73,332.99 723.19,332.99 725.50,332.00 ZM 640.00 373.44 C640.00,371.81 636.45,371.47 635.50,373.00 C635.16,373.55 635.58,374.00 636.44,374.00 C637.30,374.00 638.00,374.48 638.00,375.06 C638.00,375.64 638.45,375.84 639.00,375.50 C639.55,375.16 640.00,374.23 640.00,373.44 ZM 887.00 382.28 C887.00,381.33 886.42,381.01 885.42,381.39 C884.55,381.73 883.65,382.00 883.42,382.00 C883.19,382.00 883.00,382.63 883.00,383.41 C883.00,384.32 883.70,384.63 885.00,384.29 C886.10,384.00 887.00,383.10 887.00,382.28 ZM 890.97 375.84 C890.99,375.48 890.15,375.41 889.12,375.68 C887.83,376.02 887.39,376.79 887.74,378.11 C888.22,379.95 888.31,379.96 889.59,378.27 C890.33,377.30 890.95,376.20 890.97,375.84 ZM 883.50 378.00 C883.16,377.45 882.23,377.00 881.44,377.00 C880.65,377.00 880.00,377.45 880.00,378.00 C880.00,378.55 880.93,379.00 882.06,379.00 C883.19,379.00 883.84,378.55 883.50,378.00 ZM 587.93 366.00 C587.90,366.00 587.87,366.00 587.84,366.00 C586.50,366.00 584.22,365.08 581.75,363.69 C583.84,364.79 585.95,365.59 587.93,366.00 ZM 552.51 337.67 C552.25,336.89 551.96,336.19 551.70,335.54 C551.09,334.04 550.61,332.87 550.92,331.97 C550.94,331.89 550.98,331.81 551.02,331.74 C550.73,332.74 551.22,334.10 551.90,335.95 C552.09,336.48 552.30,337.05 552.51,337.67 ZM 561.39 340.88 C561.13,339.99 561.02,339.11 561.16,338.38 C561.21,338.15 561.27,337.94 561.38,337.76 L 561.26 339.00 C561.20,339.57 561.26,340.23 561.39,340.88 ZM 574.50 358.55 C574.02,358.12 573.57,357.69 573.15,357.26 C572.71,356.79 572.32,356.37 571.98,355.97 C572.35,356.39 572.77,356.84 573.25,357.33 C573.66,357.75 574.07,358.16 574.50,358.55 Z" fill="rgb(156,70,62)"/>
<path d="M 560.67 286.33 C559.65,285.31 559.87,280.10 561.04,277.93 C561.14,277.73 561.26,277.55 561.40,277.38 L 561.18 279.33 C561.00,280.89 561.10,282.81 561.39,283.58 C561.84,284.73 565.40,285.00 580.39,285.00 C590.53,285.00 599.55,284.73 600.42,284.39 C600.48,284.37 600.54,284.34 600.61,284.31 C600.38,284.61 600.13,284.89 599.85,285.13 C597.91,286.81 595.83,287.00 579.51,287.00 C569.51,287.00 561.03,286.70 560.67,286.33 ZM 590.37 276.09 C587.51,276.09 583.94,276.15 579.50,276.22 L 563.37 276.47 C565.60,276.05 570.19,276.00 580.45,276.00 C584.00,276.00 587.40,276.03 590.37,276.09 ZM 601.78 278.27 C601.41,277.20 600.40,276.62 597.68,276.33 C599.19,276.41 600.16,276.51 600.42,276.61 C601.09,276.86 601.54,277.47 601.78,278.27 ZM 602.00 280.18 C602.00,279.71 601.98,279.29 601.93,278.92 C602.00,279.32 602.02,279.74 602.00,280.18 Z" fill="rgb(141,141,141)"/>
<path d="M 829.14 317.00 C827.40,319.36 826.73,319.51 817.40,319.61 C807.26,319.73 798.95,318.94 791.00,317.12 C788.53,316.55 783.80,315.60 780.50,315.00 C771.31,313.33 770.75,312.39 770.64,298.34 C770.43,273.87 770.90,265.00 772.39,265.00 C773.16,265.00 774.05,264.33 774.36,263.50 C774.68,262.67 775.88,262.00 777.04,262.00 C779.05,262.00 779.11,262.32 778.45,269.85 C778.01,274.97 778.15,278.42 778.88,279.77 C780.26,282.36 787.79,285.93 799.48,289.55 C809.16,292.54 811.00,293.72 811.00,296.93 L 811.00 297.09 C811.00,297.82 811.00,298.30 810.76,298.57 C810.26,299.12 808.72,298.73 804.01,297.53 L 803.50 297.40 C789.72,293.89 781.04,290.85 780.95,289.50 C780.92,288.95 779.53,287.43 777.88,286.12 C773.98,283.04 772.13,284.42 774.12,288.92 C774.87,290.61 775.83,292.00 776.24,292.00 C776.66,292.00 777.00,294.00 777.00,296.43 C777.00,298.87 777.41,301.94 777.90,303.24 C779.63,307.79 792.66,311.48 810.65,312.51 L 821.80 313.16 L 822.46 302.33 C823.19,290.38 825.21,278.70 827.91,270.71 C829.39,266.36 830.12,265.45 832.34,265.18 C835.33,264.83 835.43,265.27 833.88,272.00 C831.55,282.09 829.34,304.28 830.16,309.38 C830.84,313.64 830.67,314.92 829.14,317.00 ZM 874.11 331.05 C864.87,321.89 863.11,319.22 860.55,311.87 C857.96,304.43 859.10,279.76 862.18,276.68 C864.99,273.87 865.81,277.18 865.65,290.60 C865.53,300.95 865.88,304.69 867.44,309.50 C870.14,317.85 873.89,323.67 878.60,326.87 C877.10,326.08 876.57,326.29 875.52,327.34 C874.68,328.17 874.00,329.51 874.00,330.31 C874.00,330.56 874.04,330.81 874.11,331.05 ZM 829.45 332.00 C837.46,332.00 843.00,331.63 842.45,331.13 C841.94,330.65 832.74,330.15 822.27,329.80 C831.78,329.98 839.60,329.92 841.14,329.63 C845.60,328.80 847.87,325.21 846.23,321.61 C845.63,320.28 845.36,318.35 845.63,317.31 C846.17,315.25 850.00,314.38 850.00,316.31 C850.01,316.97 851.08,319.60 852.38,322.17 C855.54,328.41 854.93,331.60 850.40,332.45 C848.53,332.80 847.00,333.52 847.00,334.05 C847.00,335.46 844.24,335.21 843.75,333.75 C843.42,332.79 837.45,332.50 818.41,332.50 C814.90,332.50 811.52,332.48 808.42,332.43 C814.66,332.19 823.22,332.01 829.45,332.00 ZM 815.00 272.41 C815.00,275.46 808.91,274.08 802.11,269.49 C793.73,263.82 791.75,261.74 791.36,258.17 C790.91,254.01 793.36,253.38 796.21,256.92 C798.56,259.82 808.04,266.97 809.62,267.03 C811.28,267.10 815.00,270.82 815.00,272.41 ZM 884.52 333.39 C883.86,331.46 882.25,329.32 880.58,328.09 C886.88,331.93 890.57,335.72 892.45,340.20 C892.73,340.89 893.05,341.64 893.37,342.38 C893.06,342.14 892.66,342.00 892.20,342.00 C891.21,342.00 889.86,341.46 889.20,340.80 C888.37,339.97 888.00,339.94 888.00,340.72 C888.00,341.33 888.56,342.02 889.25,342.25 C890.07,342.52 890.51,344.85 890.54,349.01 C890.56,353.06 891.02,355.51 891.79,355.76 C893.82,356.44 893.25,363.34 891.00,365.27 C890.16,365.99 889.43,367.34 889.14,368.62 C889.43,367.07 889.70,365.35 889.95,363.46 C891.72,349.71 890.62,347.25 876.54,333.45 L 876.53 333.44 C877.13,333.63 877.77,333.64 878.35,333.42 C879.25,333.07 881.18,333.71 882.73,334.87 C884.25,336.01 885.56,336.95 885.63,336.97 C885.70,336.99 885.21,335.38 884.52,333.39 ZM 719.05 335.20 C741.79,335.08 750.58,334.76 750.78,334.15 C751.03,333.41 753.97,333.00 758.93,333.00 C766.69,333.00 773.00,331.61 773.00,329.90 C773.00,329.78 772.14,329.65 770.55,329.54 C773.30,329.63 775.12,329.74 776.02,329.85 L 781.18 330.50 L 777.13 335.16 ZM 836.42 260.39 C834.18,261.25 834.00,261.18 834.00,259.50 C834.00,258.67 834.89,258.00 836.00,258.00 C838.38,258.00 838.65,259.54 836.42,260.39 ZM 869.74 261.31 C871.30,262.87 871.30,263.00 869.77,263.00 C867.95,263.00 866.44,261.23 867.42,260.24 C867.77,259.90 868.81,260.38 869.74,261.31 ZM 586.82 335.91 L 589.50 335.85 C603.28,335.53 638.77,335.28 672.27,335.25 C635.95,335.35 601.35,335.60 589.00,335.88 L 586.38 335.94 C586.54,335.93 586.68,335.92 586.82,335.91 ZM 885.74 377.88 C885.25,378.57 884.81,379.00 884.50,379.00 C884.21,379.00 882.90,376.64 881.57,373.74 C882.93,376.69 884.47,378.82 885.02,378.49 C885.27,378.34 885.51,378.13 885.74,377.88 ZM 895.53 347.31 C895.44,347.10 895.35,346.95 895.25,346.85 C894.57,346.17 894.02,344.83 894.00,343.84 C894.55,345.10 895.05,346.22 895.37,346.90 C895.42,347.02 895.48,347.16 895.53,347.31 ZM 889.06 369.02 C889.02,369.27 889.00,369.51 889.00,369.74 C888.99,370.82 888.41,372.64 887.64,374.39 C888.16,372.95 888.63,371.16 889.06,369.02 ZM 809.06 329.46 C803.14,329.36 797.81,329.34 794.50,329.43 C797.32,329.26 801.98,329.29 809.06,329.46 ZM 791.02 330.22 C791.05,330.43 791.10,330.63 791.16,330.82 C790.98,330.59 790.92,330.39 791.02,330.22 ZM 890.47 383.50 C892.16,380.86 894.11,376.61 894.93,373.84 C894.14,376.57 892.17,380.84 890.47,383.50 ZM 550.92 331.97 C550.94,331.88 550.98,331.80 551.02,331.72 L 551.02 331.74 C550.98,331.81 550.94,331.89 550.92,331.97 C550.76,332.44 550.81,332.99 550.99,333.62 C550.81,332.99 550.75,332.44 550.92,331.97 Z" fill="rgb(176,92,61)"/>
<path d="M 846.09 326.47 C846.81,324.93 846.86,323.02 846.04,321.26 C844.18,317.29 842.04,304.53 842.02,297.27 C842.00,290.89 843.96,276.90 845.00,276.00 C845.32,275.73 846.23,273.48 847.03,271.02 L 848.47 266.54 L 849.13 270.52 C849.50,272.71 849.35,278.77 848.81,284.00 C847.78,293.97 848.30,308.76 849.92,315.44 C850.45,317.61 852.36,322.22 854.17,325.68 C857.12,331.31 857.30,332.13 855.94,333.49 C855.48,333.95 853.51,334.27 846.87,334.51 C846.95,334.38 847.00,334.23 847.00,334.05 C847.00,333.52 848.53,332.80 850.40,332.45 C854.93,331.60 855.54,328.41 852.38,322.17 C851.08,319.60 850.01,316.97 850.00,316.31 C850.00,314.38 846.17,315.25 845.63,317.31 C845.36,318.35 845.63,320.28 846.23,321.61 C847.02,323.33 846.91,325.05 846.09,326.47 ZM 791.02 330.22 C790.92,330.39 790.98,330.59 791.16,330.82 C791.89,332.77 795.19,333.13 804.50,332.61 C805.64,332.55 806.97,332.49 808.42,332.43 C811.52,332.48 814.90,332.50 818.41,332.50 C837.45,332.50 843.42,332.79 843.75,333.75 C843.86,334.10 844.11,334.38 844.42,334.58 C833.92,334.87 814.14,335.00 777.19,335.08 L 781.18 330.50 L 776.02 329.85 C775.12,329.74 773.30,329.63 770.55,329.54 C768.86,329.42 766.36,329.31 763.22,329.21 C774.61,329.31 784.80,329.39 793.78,329.45 C792.02,329.52 791.00,329.62 791.00,329.78 C791.00,329.93 791.01,330.08 791.02,330.22 ZM 863.27 367.49 C852.85,366.64 666.11,367.14 663.46,368.02 C665.21,367.40 701.76,367.02 761.48,366.98 C821.39,366.94 857.15,366.56 857.52,365.96 C858.38,364.58 863.62,364.78 865.18,366.25 C865.83,366.87 867.73,368.40 869.61,369.82 C867.66,368.59 865.12,367.64 863.27,367.49 ZM 836.42 260.39 C837.20,260.09 837.68,259.71 837.86,259.34 C837.87,260.19 837.37,261.57 836.43,263.78 C834.76,267.75 833.01,276.06 831.75,284.65 C832.38,279.82 833.12,275.27 833.88,272.00 C835.43,265.27 835.33,264.83 832.34,265.18 C830.46,265.41 829.65,266.10 828.54,268.95 C828.72,268.39 828.91,267.82 829.10,267.25 C832.03,258.40 832.29,258.00 835.08,258.00 C835.32,258.00 835.54,258.00 835.75,258.01 C834.76,258.10 834.00,258.73 834.00,259.50 C834.00,261.18 834.18,261.25 836.42,260.39 ZM 810.18 298.81 C810.46,298.78 810.64,298.71 810.76,298.57 C811.00,298.30 811.00,297.82 811.00,297.09 L 811.00 296.93 C811.00,293.72 809.16,292.54 799.48,289.55 C795.34,288.27 791.72,286.99 788.71,285.76 C795.46,288.37 806.26,291.64 811.19,292.46 C817.22,293.46 817.49,299.01 811.50,298.95 C811.20,298.95 810.76,298.90 810.18,298.81 ZM 865.67 288.47 C865.72,276.83 864.83,274.03 862.18,276.68 C861.32,277.54 860.61,280.07 860.10,283.44 C860.11,283.31 860.13,283.17 860.14,283.04 L 861.28 273.00 L 867.06 273.00 L 866.28 279.75 C866.03,281.93 865.81,285.20 865.67,288.47 ZM 854.01 256.25 C854.00,257.21 853.62,258.00 853.17,258.00 C851.38,258.00 851.17,256.67 852.61,254.48 C853.70,252.82 853.79,251.99 852.97,251.48 C852.22,251.02 852.64,250.35 854.16,249.55 C857.21,247.97 857.33,248.15 855.52,251.60 C854.69,253.20 854.01,255.29 854.01,256.25 ZM 813.99 329.57 C829.88,329.63 839.26,329.60 841.90,329.46 C841.65,329.53 841.40,329.59 841.14,329.63 C839.60,329.92 831.78,329.98 822.27,329.80 C819.55,329.71 816.75,329.63 813.99,329.57 ZM 586.00 335.96 C586.13,335.95 586.26,335.94 586.38,335.94 L 589.00 335.88 C601.35,335.60 635.95,335.35 672.27,335.25 C676.20,335.25 680.11,335.25 683.95,335.25 L 686.16 335.25 C639.72,335.39 600.27,335.64 589.00,335.89 ZM 710.47 328.70 C705.09,328.67 701.26,328.64 700.00,328.63 C696.97,328.59 662.42,328.65 623.22,328.78 C599.71,328.85 583.62,328.83 572.71,329.00 L 572.47 329.00 C583.39,328.83 599.54,328.84 623.22,328.77 C662.42,328.64 697.20,328.56 700.50,328.60 C703.88,328.63 707.20,328.67 710.47,328.70 ZM 868.16 311.58 C867.91,310.90 867.67,310.21 867.44,309.50 C866.48,306.52 865.98,303.96 865.76,299.98 C866.14,304.10 866.96,308.02 868.16,311.58 ZM 859.21 293.36 C859.01,298.19 859.12,303.18 859.58,307.04 C858.99,303.19 858.89,298.82 859.21,293.36 ZM 861.29 313.92 C862.55,317.23 863.81,319.62 866.15,322.55 C864.86,321.05 863.97,319.91 863.67,319.32 C862.73,317.50 861.94,315.73 861.29,313.92 ZM 778.25 276.67 C778.45,278.75 779.04,280.13 780.27,281.31 C779.60,280.77 779.14,280.25 778.88,279.77 C778.55,279.16 778.34,278.11 778.25,276.67 ZM 788.09 292.98 C791.81,294.23 796.84,295.69 802.89,297.24 C800.29,296.60 797.38,295.83 794.50,295.01 C792.19,294.35 790.01,293.66 788.09,292.98 ZM 824.39 285.35 C823.49,290.67 822.82,296.47 822.46,302.33 L 821.80 313.16 L 822.46 302.33 C822.84,296.07 823.45,290.62 824.39,285.35 ZM 879.00 386.27 C879.00,384.16 878.11,381.34 876.74,378.60 C878.11,381.32 879.00,384.12 879.00,386.27 Z" fill="rgb(173,100,83)"/>
<path d="M 858.13 249.83 C852.40,263.36 849.03,277.76 848.34,291.37 C848.42,288.77 848.58,286.26 848.81,284.00 C849.35,278.77 849.50,272.71 849.13,270.52 L 848.47 266.54 L 847.03 271.02 C846.23,273.48 845.32,275.73 845.00,276.00 C844.49,276.44 843.75,280.09 843.13,284.44 C843.35,282.23 843.60,279.92 843.90,277.50 C846.09,259.58 857.47,236.61 870.39,224.03 C875.50,219.05 877.42,218.20 875.04,221.97 C874.42,222.94 874.51,223.72 875.30,224.24 C876.20,224.84 876.12,225.35 874.99,226.27 C870.07,230.28 861.13,242.78 858.13,249.83 ZM 839.82 220.72 C839.47,223.75 836.96,224.87 835.22,222.77 C834.62,222.05 833.26,218.09 832.19,213.98 C830.51,207.50 829.78,202.87 827.50,184.16 C826.95,179.60 828.74,177.74 831.27,180.27 C832.72,181.72 833.39,184.56 834.12,192.23 C834.64,197.76 836.20,205.81 837.60,210.12 C839.00,214.43 839.99,219.20 839.82,220.72 ZM 823.92 252.07 C821.71,253.47 821.49,253.33 817.26,247.75 C813.27,242.48 800.00,220.89 800.00,219.66 C800.00,217.87 802.03,219.39 803.91,222.57 C805.49,225.24 806.58,226.06 808.26,225.82 C809.99,225.57 811.26,226.63 813.88,230.50 C815.73,233.25 819.07,237.69 821.29,240.38 C825.54,245.50 826.63,250.36 823.92,252.07 ZM 784.00 241.11 C784.00,242.70 783.55,244.00 783.00,244.00 C782.45,244.00 782.00,243.50 782.00,242.89 C782.00,242.21 781.04,242.02 779.50,242.41 C778.12,242.76 777.00,242.91 777.00,242.75 C777.00,239.97 786.26,211.37 788.68,206.66 C790.93,202.30 791.30,204.15 789.47,210.47 C788.56,213.59 788.03,216.36 788.29,216.62 C788.55,216.88 789.06,215.92 789.42,214.48 C789.78,213.02 790.61,212.06 791.29,212.30 C791.95,212.55 792.31,213.37 792.09,214.12 C791.86,214.88 789.95,220.61 787.84,226.86 C785.73,233.10 784.00,239.52 784.00,241.11 ZM 842.98 248.75 C840.73,253.82 839.00,255.49 839.00,252.61 C839.00,251.85 839.65,249.97 840.45,248.44 C841.25,246.90 841.70,245.32 841.46,244.94 C841.22,244.55 841.69,243.67 842.51,242.99 C843.33,242.31 844.00,241.36 844.00,240.88 C844.00,239.52 841.22,239.84 840.72,241.25 C840.47,241.94 839.95,242.20 839.55,241.83 C839.15,241.46 841.18,237.30 844.07,232.58 C849.09,224.37 851.42,221.99 850.79,225.75 C850.59,226.94 851.06,227.41 852.25,227.21 C854.71,226.79 854.54,227.36 849.66,235.90 C847.27,240.08 844.26,245.86 842.98,248.75 ZM 873.25 208.34 C871.11,209.69 866.64,213.77 863.31,217.40 C858.12,223.07 857.08,223.80 856.00,222.51 C855.32,221.68 854.04,221.00 853.16,221.00 C852.18,221.00 853.84,218.69 857.47,215.03 C860.73,211.74 863.58,209.25 863.82,209.49 C864.06,209.73 866.11,208.41 868.38,206.56 C873.21,202.61 876.27,201.75 876.78,204.20 C877.00,205.29 875.75,206.76 873.25,208.34 ZM 869.74 261.31 C869.13,260.70 868.46,260.28 867.99,260.16 C870.06,259.27 872.29,253.89 871.04,252.64 C870.21,251.81 869.68,251.89 869.01,252.98 C868.52,253.78 867.81,254.14 867.44,253.77 C867.07,253.41 867.72,251.90 868.89,250.42 C870.95,247.79 871.00,247.78 871.00,249.99 C871.00,251.88 871.24,252.04 872.50,251.00 C873.33,250.32 874.00,248.63 874.00,247.26 C874.00,245.04 873.81,244.91 872.34,246.13 C871.42,246.88 870.88,247.05 871.14,246.50 C871.39,245.95 872.82,242.90 874.30,239.72 C875.79,236.54 877.01,233.39 877.02,232.72 C877.03,231.95 877.38,232.05 878.00,233.00 C878.70,234.09 878.97,234.14 878.98,233.19 C878.99,232.47 879.41,232.14 879.91,232.45 C880.42,232.76 881.03,232.45 881.28,231.76 C881.52,231.07 882.08,230.83 882.51,231.23 C882.95,231.64 880.70,238.46 877.52,246.40 C872.86,258.05 871.43,260.72 870.12,260.23 C868.71,259.71 868.68,259.85 869.87,261.31 C870.08,261.57 870.25,261.78 870.38,261.97 C870.21,261.78 869.99,261.56 869.74,261.31 ZM 795.50 197.41 C790.55,202.36 790.78,201.15 797.09,189.02 C802.75,178.13 806.45,174.82 807.21,179.98 C807.50,181.95 806.60,184.58 804.31,188.46 C802.49,191.56 801.00,194.51 801.00,195.01 C801.00,195.52 800.35,195.69 799.54,195.38 C798.73,195.07 796.94,195.97 795.50,197.41 ZM 818.67 247.25 C818.92,247.66 820.25,248.00 821.64,248.00 L 824.17 248.00 L 820.61 243.15 C818.65,240.48 817.33,238.00 817.69,237.65 C818.04,237.29 817.63,237.00 816.77,237.00 C815.90,237.00 814.27,235.43 813.13,233.50 C812.00,231.57 810.38,230.00 809.53,230.00 C807.39,230.00 807.62,231.11 810.36,234.06 C811.65,235.46 813.95,238.83 815.47,241.55 C816.98,244.27 818.42,246.84 818.67,247.25 ZM 886.75 217.25 C885.59,222.29 884.00,223.63 884.00,219.57 C884.00,218.01 883.28,216.91 882.00,216.50 C880.40,215.99 880.20,215.49 881.00,214.00 C881.55,212.97 882.00,211.05 882.00,209.73 C882.00,206.73 882.63,206.09 884.96,206.70 C887.40,207.34 888.09,211.40 886.75,217.25 ZM 854.01 256.25 C854.01,255.29 854.69,253.20 855.52,251.60 C857.33,248.15 857.21,247.97 854.16,249.55 C852.64,250.35 852.22,251.02 852.97,251.48 C853.79,251.99 853.70,252.82 852.61,254.48 C851.17,256.67 851.38,258.00 853.17,258.00 C853.62,258.00 854.00,257.21 854.01,256.25 ZM 778.37 262.29 C778.09,262.03 777.65,262.00 777.04,262.00 C775.88,262.00 774.68,262.67 774.36,263.50 C774.05,264.33 773.16,265.00 772.39,265.00 C772.15,265.00 771.93,265.24 771.74,265.75 C772.30,260.66 773.07,258.00 774.03,258.00 C774.49,258.00 775.15,258.90 775.50,260.00 C775.85,261.10 776.81,262.00 777.64,262.00 C777.95,262.00 778.19,262.08 778.37,262.29 ZM 813.43 169.43 C811.89,170.96 810.00,171.54 810.00,170.46 C810.00,169.34 813.27,165.00 814.11,165.00 C815.55,165.00 815.13,167.73 813.43,169.43 ZM 832.00 169.30 C832.00,173.61 831.31,174.09 830.39,170.43 C830.03,168.97 830.24,167.36 830.87,166.73 C831.71,165.89 832.00,166.56 832.00,169.30 ZM 866.00 176.44 C866.00,177.30 865.55,178.00 865.00,178.00 C864.45,178.00 864.00,177.58 864.00,177.06 C864.00,176.54 864.45,175.84 865.00,175.50 C865.55,175.16 866.00,175.58 866.00,176.44 ZM 835.00 214.44 C835.00,215.30 835.45,216.00 836.00,216.00 C836.55,216.00 837.00,215.58 837.00,215.06 C837.00,214.54 836.55,213.84 836.00,213.50 C835.45,213.16 835.00,213.58 835.00,214.44 ZM 845.10 318.62 C843.62,314.51 842.74,309.75 842.44,303.94 C842.99,309.15 844.03,314.92 845.10,318.62 ZM 773.13 312.65 C771.25,310.96 770.74,307.74 770.66,300.43 C770.83,312.49 771.79,313.42 780.50,315.00 C776.91,314.35 774.60,313.97 773.13,312.65 ZM 850.94 318.51 C850.47,317.29 850.11,316.21 849.92,315.44 C849.33,313.02 848.89,309.53 848.61,305.59 C849.06,311.24 849.67,314.89 850.94,318.51 ZM 846.09 326.47 C845.82,326.92 845.49,327.35 845.09,327.73 C845.47,327.32 845.80,326.88 846.04,326.43 C846.16,326.21 846.26,326.00 846.35,325.79 C846.28,326.03 846.19,326.25 846.09,326.47 ZM 867.72 262.18 C868.21,262.65 868.95,262.99 869.74,263.00 L 869.68 263.00 C868.90,263.00 868.19,262.64 867.72,262.18 Z" fill="rgb(189,122,85)"/>
<path d="M 784.00 241.11 C784.00,240.67 784.13,239.86 784.37,238.78 C784.13,239.87 784.00,240.70 784.00,241.18 C784.00,243.52 785.79,246.04 794.48,255.23 C792.45,253.81 791.01,254.89 791.36,258.17 C791.59,260.24 792.35,261.81 794.59,263.87 C793.20,262.77 791.78,261.59 790.35,260.35 C786.96,257.41 783.75,255.00 783.22,255.00 C781.07,255.00 779.87,258.22 778.82,266.76 C778.63,268.26 778.48,269.60 778.37,270.81 C778.40,270.50 778.42,270.18 778.45,269.85 C778.91,264.63 779.02,262.88 778.37,262.29 C778.19,262.08 777.95,262.00 777.64,262.00 C776.81,262.00 775.85,261.10 775.50,260.00 C775.15,258.90 774.49,258.00 774.03,258.00 C773.64,258.00 773.27,258.45 772.94,259.34 L 775.56 248.89 C776.09,246.77 776.61,244.75 777.11,242.81 C777.43,242.84 778.38,242.69 779.50,242.41 C781.04,242.02 782.00,242.21 782.00,242.89 C782.00,243.50 782.45,244.00 783.00,244.00 C783.55,244.00 784.00,242.70 784.00,241.11 ZM 795.50 197.41 C796.89,196.02 798.62,195.13 799.46,195.35 C799.29,195.45 799.13,195.50 799.00,195.50 C796.81,195.50 796.43,202.29 798.51,204.37 C799.40,205.26 802.07,209.79 804.45,214.45 C807.97,221.35 812.09,228.10 816.42,234.08 C815.46,232.77 814.57,231.52 813.88,230.50 C811.26,226.63 809.99,225.57 808.26,225.82 C806.58,226.06 805.49,225.24 803.91,222.57 C802.14,219.58 800.24,218.06 800.02,219.37 C798.55,216.41 797.59,214.12 797.46,213.00 C797.37,212.18 797.23,210.94 797.15,210.25 C796.98,208.80 793.39,208.55 792.54,209.93 C792.23,210.44 792.42,211.14 792.97,211.48 C793.61,211.88 793.45,212.91 792.53,214.32 C792.06,215.03 791.37,216.61 790.59,218.68 C791.40,216.24 791.97,214.52 792.09,214.12 C792.31,213.37 791.95,212.55 791.29,212.30 C790.61,212.06 789.78,213.02 789.42,214.48 C789.06,215.92 788.55,216.88 788.29,216.62 C788.03,216.36 788.56,213.59 789.47,210.47 C791.04,205.05 790.99,202.92 789.53,205.17 C790.34,203.31 791.19,201.42 792.10,199.48 C791.76,200.89 792.93,199.98 795.50,197.41 ZM 877.16 232.22 C878.25,228.41 878.23,226.00 876.88,226.02 C874.90,226.04 873.99,226.84 868.97,233.00 C867.67,234.59 866.53,236.03 865.49,237.40 C868.81,232.70 872.44,228.34 874.99,226.27 C876.12,225.35 876.20,224.84 875.30,224.24 C874.51,223.72 874.42,222.94 875.04,221.97 C876.78,219.22 876.23,218.93 873.82,220.90 C879.04,215.97 881.11,213.66 881.75,211.77 C881.57,212.62 881.30,213.44 881.00,214.00 C880.20,215.49 880.40,215.99 882.00,216.50 C883.28,216.91 884.00,218.01 884.00,219.57 C884.00,222.88 885.05,222.60 886.07,219.67 C885.17,223.52 883.86,228.12 882.29,232.95 C882.55,231.96 882.64,231.35 882.51,231.23 C882.08,230.83 881.52,231.07 881.28,231.76 C881.03,232.45 880.42,232.76 879.91,232.45 C879.41,232.14 878.99,232.47 878.98,233.19 C878.97,234.14 878.70,234.09 878.00,233.00 C877.61,232.40 877.32,232.14 877.16,232.22 ZM 867.72 262.18 C868.19,262.64 868.90,263.00 869.68,263.00 L 869.74 263.00 L 869.77 263.00 C871.05,263.00 871.26,262.91 870.38,261.97 C870.25,261.78 870.08,261.57 869.87,261.31 C868.68,259.85 868.71,259.71 870.12,260.23 C871.00,260.56 871.94,259.46 873.88,255.14 C868.71,268.11 867.16,273.72 866.02,282.45 C866.10,281.45 866.19,280.53 866.28,279.75 L 867.06 273.00 L 861.69 273.00 C863.42,263.40 865.77,255.08 868.02,251.67 C867.43,252.67 867.18,253.51 867.44,253.77 C867.81,254.14 868.52,253.78 869.01,252.98 C869.68,251.89 870.21,251.81 871.04,252.64 C872.29,253.89 870.06,259.27 867.99,260.16 C867.74,260.10 867.54,260.13 867.42,260.24 C866.88,260.79 867.10,261.58 867.72,262.18 ZM 837.47 261.13 C837.73,260.36 837.86,259.78 837.86,259.34 C838.20,258.65 837.55,258.00 836.00,258.00 C835.92,258.00 835.83,258.00 835.75,258.01 C835.54,258.00 835.32,258.00 835.08,258.00 C832.29,258.00 832.03,258.40 829.10,267.25 C828.91,267.82 828.72,268.39 828.54,268.95 C828.50,269.07 828.45,269.20 828.40,269.34 C830.09,263.61 831.90,258.06 833.01,255.50 C833.49,254.40 834.19,252.38 834.57,251.00 C834.95,249.62 836.10,247.31 837.13,245.85 C838.16,244.39 839.00,242.67 839.00,242.03 C839.00,240.79 841.35,236.63 844.51,231.85 C844.37,232.09 844.22,232.33 844.07,232.58 C841.18,237.30 839.15,241.46 839.55,241.83 C839.95,242.20 840.47,241.94 840.72,241.25 C841.22,239.84 844.00,239.52 844.00,240.88 C844.00,241.36 843.33,242.31 842.51,242.99 C841.69,243.67 841.22,244.55 841.46,244.94 C841.70,245.32 841.25,246.90 840.45,248.44 C839.65,249.97 839.00,251.85 839.00,252.61 C839.00,254.92 840.11,254.30 841.70,251.37 C840.13,254.75 838.69,258.06 837.47,261.13 ZM 818.67 247.25 C818.42,246.84 816.98,244.27 815.47,241.55 C813.95,238.83 811.65,235.46 810.36,234.06 C807.62,231.11 807.39,230.00 809.53,230.00 C810.38,230.00 812.00,231.57 813.13,233.50 C814.27,235.43 815.90,237.00 816.77,237.00 C817.63,237.00 818.04,237.29 817.69,237.65 C817.33,238.00 818.65,240.48 820.61,243.15 L 824.17 248.00 L 821.64 248.00 C820.25,248.00 818.92,247.66 818.67,247.25 ZM 784.38 291.62 C782.73,291.25 781.22,291.07 780.35,291.17 C777.91,291.45 777.45,292.00 777.17,294.93 C777.09,295.83 777.04,296.66 777.02,297.44 C777.01,297.10 777.00,296.76 777.00,296.43 C777.00,294.00 776.66,292.00 776.24,292.00 C775.83,292.00 774.87,290.61 774.12,288.92 C772.13,284.42 773.98,283.04 777.88,286.12 C779.53,287.43 780.92,288.95 780.95,289.50 C780.99,290.00 782.19,290.72 784.38,291.62 ZM 849.52 224.70 C850.78,223.00 852.05,221.35 853.26,219.87 C852.80,220.60 852.75,221.00 853.16,221.00 C854.04,221.00 855.32,221.68 856.00,222.51 C857.08,223.80 858.12,223.07 863.31,217.40 C863.93,216.73 864.59,216.04 865.26,215.35 C860.11,220.72 854.47,227.81 851.05,233.57 C848.53,237.81 846.01,242.50 843.70,247.20 C845.19,244.09 847.64,239.43 849.66,235.90 C854.54,227.36 854.71,226.79 852.25,227.21 C851.06,227.41 850.59,226.94 850.79,225.75 C851.11,223.85 850.68,223.52 849.52,224.70 ZM 869.08 250.17 C869.69,249.17 870.60,247.49 871.59,245.53 C871.37,246.01 871.21,246.35 871.14,246.50 C870.88,247.05 871.42,246.88 872.34,246.13 C873.81,244.91 874.00,245.04 874.00,247.26 C874.00,248.63 873.33,250.32 872.50,251.00 C871.24,252.04 871.00,251.88 871.00,249.99 C871.00,247.85 870.96,247.79 869.08,250.17 ZM 835.00 214.44 C835.00,213.58 835.45,213.16 836.00,213.50 C836.55,213.84 837.00,214.54 837.00,215.06 C837.00,215.58 836.55,216.00 836.00,216.00 C835.45,216.00 835.00,215.30 835.00,214.44 ZM 855.73 243.81 C849.65,254.69 845.19,266.97 843.90,277.50 C845.26,266.37 849.49,254.60 855.73,243.81 ZM 807.15 232.21 C810.96,238.42 815.27,245.12 817.26,247.75 C821.42,253.23 821.70,253.46 823.81,252.14 C823.26,252.66 822.59,252.97 821.87,252.98 C820.38,253.02 813.30,242.55 807.15,232.21 ZM 772.25 262.10 C772.06,263.12 771.89,264.34 771.74,265.75 C771.36,266.75 771.09,268.80 770.90,272.12 L 770.95 267.28 ZM 859.12 302.47 C859.20,304.09 859.36,305.60 859.58,307.04 C859.81,309.00 860.13,310.66 860.55,311.87 C860.80,312.60 861.05,313.28 861.29,313.92 L 861.29 313.92 C861.62,314.85 861.99,315.77 862.40,316.69 C860.13,312.41 859.30,308.19 859.12,302.47 ZM 806.21 298.09 C803.29,297.55 799.78,296.65 795.80,295.38 C798.24,296.06 800.68,296.70 802.88,297.24 L 802.89 297.24 C803.09,297.29 803.29,297.35 803.50,297.40 L 804.01 297.53 C804.83,297.74 805.57,297.93 806.21,298.09 ZM 805.45 186.41 C806.89,183.63 807.44,181.60 807.21,180.01 L 807.23 180.09 C807.46,181.71 807.12,183.82 806.47,184.77 C806.23,185.11 805.88,185.69 805.45,186.41 ZM 856.75 253.22 C855.56,256.39 854.33,260.12 852.87,264.83 C852.72,265.31 852.58,265.78 852.44,266.26 C853.64,261.88 855.08,257.52 856.75,253.22 ZM 785.64 308.40 C791.71,310.43 800.70,311.93 810.65,312.51 L 821.80 313.16 L 810.65 312.51 C800.25,311.91 791.50,310.43 785.64,308.40 ZM 814.16 293.55 C814.69,293.81 815.05,294.05 815.18,294.26 C816.43,296.22 816.20,297.52 814.72,298.17 C816.41,297.04 816.20,294.91 814.16,293.55 ZM 825.33 248.15 C825.05,246.13 823.85,243.63 821.81,241.01 C824.15,243.96 825.31,246.30 825.33,248.15 ZM 815.00 272.41 C815.00,274.28 813.28,274.60 810.44,273.65 C813.19,274.42 815.00,274.08 815.00,272.41 ZM 804.12 178.37 C803.06,179.27 801.77,180.93 800.28,183.35 C801.97,180.45 803.16,178.93 804.12,178.37 ZM 804.08 263.70 C806.64,265.47 809.12,267.01 809.68,267.03 C810.50,267.07 811.85,268.05 812.99,269.21 C811.84,268.04 810.46,267.07 809.62,267.03 C808.91,267.01 806.61,265.55 804.08,263.70 ZM 824.39 285.35 L 824.39 285.35 C824.13,286.80 823.90,288.27 823.68,289.77 C823.98,287.51 824.29,285.49 824.57,284.00 C824.70,283.36 824.86,282.63 825.04,281.83 C824.81,282.98 824.60,284.15 824.39,285.35 ZM 882.32 207.29 C882.39,207.04 882.47,206.86 882.56,206.78 C883.12,206.21 883.99,206.25 884.85,206.67 C883.46,206.32 882.70,206.45 882.32,207.29 ZM 777.65 302.40 C778.05,303.55 778.66,304.49 779.48,305.27 C778.70,304.62 778.17,303.94 777.90,303.24 C777.81,303.01 777.73,302.72 777.65,302.40 ZM 807.20 179.90 C807.00,178.61 806.61,177.87 806.04,177.66 C806.75,177.62 806.95,178.25 807.20,179.90 ZM 860.93 211.69 C862.53,210.18 863.63,209.29 863.77,209.44 C864.04,209.71 866.11,208.41 868.38,206.56 C866.11,208.41 864.06,209.73 863.82,209.49 C863.67,209.34 862.54,210.22 860.93,211.69 ZM 875.50 237.03 C876.12,235.47 876.63,234.03 877.02,232.73 C877.00,233.21 876.39,234.94 875.50,237.03 ZM 886.94 208.76 C887.12,209.10 887.25,209.46 887.33,209.84 C887.41,210.28 887.44,210.86 887.41,211.57 C887.38,210.46 887.22,209.52 886.94,208.76 ZM 835.42 266.68 C835.76,265.56 836.10,264.58 836.43,263.78 C836.49,263.66 836.54,263.53 836.59,263.41 C836.16,264.55 835.77,265.64 835.42,266.68 ZM 778.25 276.67 C778.24,276.58 778.24,276.49 778.23,276.40 C778.38,278.15 778.79,279.41 779.51,280.44 C778.79,279.45 778.40,278.26 778.25,276.67 ZM 808.15 291.83 C808.44,291.89 808.71,291.95 808.98,292.00 C809.54,292.10 810.10,292.23 810.64,292.36 C809.91,292.23 809.07,292.05 808.15,291.83 ZM 802.47 191.75 C802.75,191.22 803.06,190.65 803.40,190.05 C803.23,190.37 803.06,190.69 802.89,191.00 C802.75,191.26 802.61,191.51 802.47,191.75 ZM 788.46 285.66 C789.04,285.89 789.63,286.11 790.24,286.34 C789.71,286.14 789.20,285.95 788.71,285.76 C788.63,285.73 788.55,285.70 788.46,285.66 ZM 773.13 312.65 C773.96,313.39 775.06,313.84 776.50,314.20 C775.06,313.84 773.96,313.40 773.14,312.66 C772.97,312.50 772.81,312.34 772.66,312.17 C772.81,312.34 772.97,312.50 773.13,312.65 Z" fill="rgb(199,112,57)"/>
<path d="M 886.75 217.25 C887.24,215.08 887.46,213.16 887.41,211.57 C887.44,210.86 887.41,210.28 887.33,209.84 C887.25,209.46 887.12,209.10 886.94,208.76 C886.53,207.65 885.87,206.94 884.96,206.70 C884.92,206.69 884.88,206.68 884.85,206.67 C884.74,206.62 884.64,206.57 884.53,206.53 C884.67,206.53 884.81,206.52 884.95,206.52 C887.15,206.50 887.49,205.88 888.56,200.00 C889.20,196.43 890.07,192.03 890.49,190.23 C891.13,187.50 891.00,187.06 889.69,187.57 C888.83,187.90 887.84,189.46 887.49,191.04 C886.82,194.08 881.53,199.38 878.06,200.48 C876.48,200.98 876.14,201.69 876.59,203.50 C876.61,203.59 876.63,203.69 876.65,203.78 C875.88,201.87 872.91,202.85 868.38,206.56 C866.11,208.41 864.04,209.71 863.77,209.44 C863.72,209.39 863.53,209.48 863.24,209.69 C867.15,206.06 871.18,202.78 875.00,200.20 C883.99,194.13 884.85,192.97 889.52,180.50 C890.75,177.20 892.59,172.70 893.60,170.50 C895.39,166.59 895.44,166.56 895.78,169.25 C896.42,174.28 898.80,172.10 904.43,161.33 C907.49,155.46 910.00,150.51 910.00,150.33 C910.00,149.06 906.49,150.41 905.00,152.25 C903.99,153.49 902.91,154.23 902.58,153.91 C901.27,152.60 924.84,118.46 935.65,106.00 C944.23,96.12 958.45,82.59 965.45,77.63 C973.44,71.98 974.17,69.00 967.56,69.00 C965.12,69.00 962.87,69.40 962.57,69.89 C962.26,70.39 960.32,70.99 958.26,71.24 C936.33,73.87 907.26,85.35 899.12,94.60 C893.64,100.82 881.91,124.34 877.23,138.50 C870.91,157.58 869.54,163.82 867.90,181.00 C867.24,187.91 866.19,193.47 865.26,194.93 L 863.71 197.37 L 861.73 194.93 C859.94,192.73 859.81,191.54 860.39,182.50 C861.51,165.08 864.50,151.62 870.83,135.50 C876.16,121.95 878.03,117.79 881.37,112.08 C889.38,98.43 884.11,99.98 863.80,117.26 C850.28,128.77 836.88,143.22 838.36,144.69 C838.67,145.00 838.32,146.43 837.59,147.88 C836.08,150.85 835.39,155.06 833.99,169.97 C833.22,178.14 833.46,187.40 834.53,195.71 C834.36,194.49 834.22,193.31 834.12,192.23 C833.39,184.56 832.72,181.72 831.27,180.27 C829.63,178.63 828.29,178.84 827.71,180.44 C827.64,178.58 827.60,176.69 827.57,174.77 C827.46,166.11 827.05,158.72 826.67,158.34 C825.56,157.22 820.14,163.02 816.25,169.50 C814.26,172.80 810.99,177.98 808.97,181.00 C806.95,184.02 804.21,188.52 802.90,191.00 C802.74,191.29 802.59,191.57 802.42,191.84 L 802.47 191.75 C802.61,191.51 802.75,191.26 802.89,191.00 C803.06,190.69 803.23,190.37 803.40,190.05 C803.69,189.53 804.00,189.00 804.31,188.46 C804.74,187.73 805.12,187.05 805.45,186.41 C805.88,185.69 806.23,185.11 806.47,184.77 C807.12,183.82 807.46,181.71 807.23,180.09 L 807.22 180.01 L 807.21 180.01 L 807.21 179.98 C807.21,179.96 807.20,179.93 807.20,179.90 C806.95,178.25 806.75,177.62 806.04,177.66 C805.54,177.47 804.89,177.71 804.12,178.37 C803.16,178.93 801.97,180.45 800.28,183.35 C799.94,183.89 799.59,184.48 799.23,185.10 C810.02,164.30 819.65,151.15 835.83,134.61 C867.07,102.65 897.92,81.91 929.80,71.44 C938.76,68.49 948.66,65.57 951.80,64.95 C954.93,64.32 959.30,63.38 961.50,62.86 C967.05,61.55 980.27,60.14 987.75,60.06 C992.85,60.01 994.00,60.30 994.00,61.61 C994.00,63.36 992.33,64.81 981.04,72.89 C967.79,82.36 949.63,99.27 942.84,108.46 C940.12,112.14 939.88,112.26 939.34,110.21 C939.03,108.99 938.33,108.00 937.81,108.00 C936.24,108.00 931.00,113.71 931.00,115.42 C931.00,117.68 932.30,117.38 935.00,114.50 C937.40,111.95 939.00,111.30 939.00,112.89 C939.00,113.37 937.03,116.18 934.63,119.14 C930.09,124.72 912.72,150.27 909.92,155.50 C898.05,177.64 892.27,191.18 890.48,201.00 C889.59,205.85 888.25,211.63 886.66,217.62 C886.69,217.50 886.72,217.38 886.75,217.25 ZM 816.67 161.27 C815.70,164.01 819.33,161.73 822.72,157.48 C826.07,153.29 828.44,153.06 830.39,156.75 L 831.84 159.50 L 832.92 156.68 C833.51,155.14 834.00,152.98 834.00,151.90 C834.00,150.82 835.60,147.03 837.55,143.47 C839.51,139.91 840.80,137.00 840.43,137.00 C840.05,137.00 841.71,135.24 844.12,133.08 C847.59,129.98 848.25,128.91 847.28,127.92 C846.31,126.92 843.67,129.12 834.45,138.58 C828.06,145.14 822.14,151.85 821.30,153.50 C820.45,155.15 819.21,157.18 818.53,158.00 C817.86,158.82 817.02,160.30 816.67,161.27 ZM 885.37 106.43 L 885.25 110.29 L 887.17 107.89 C891.26,102.79 900.00,89.91 900.00,88.98 C900.00,86.75 892.77,89.58 887.83,93.75 C886.91,94.53 884.82,95.92 883.18,96.83 C881.54,97.75 878.77,99.62 877.02,101.00 C875.26,102.38 872.86,104.26 871.67,105.18 C869.99,106.48 869.77,107.13 870.68,108.06 C871.60,109.00 872.99,108.44 876.92,105.56 C883.28,100.89 885.55,101.13 885.37,106.43 ZM 973.42 72.65 C973.70,73.39 974.21,74.00 974.53,74.00 C975.67,74.00 979.52,71.66 984.86,67.73 C989.60,64.23 990.04,63.61 988.72,62.29 C987.46,61.03 986.41,60.99 981.81,62.02 C978.83,62.69 974.33,63.07 971.82,62.87 C964.06,62.24 962.73,66.33 970.16,67.94 C972.16,68.38 973.38,69.20 973.20,69.98 C973.04,70.71 973.13,71.91 973.42,72.65 ZM 866.00 176.44 C866.00,175.58 865.55,175.16 865.00,175.50 C864.92,175.55 864.85,175.60 864.78,175.66 C866.16,172.63 868.02,164.68 868.72,158.50 C869.15,154.65 869.11,154.58 867.59,156.66 C865.94,158.92 863.00,171.18 863.00,175.79 C863.00,178.08 863.05,178.33 864.01,176.96 C864.00,176.99 864.00,177.03 864.00,177.06 C864.00,177.58 864.45,178.00 865.00,178.00 C865.55,178.00 866.00,177.30 866.00,176.44 ZM 915.00 139.45 C915.00,142.09 916.37,141.14 919.75,136.15 C922.88,131.54 923.92,128.00 922.15,128.00 C920.19,128.00 915.00,136.31 915.00,139.45 ZM 813.43 169.43 C815.13,167.73 815.55,165.00 814.11,165.00 C813.27,165.00 810.00,169.34 810.00,170.46 C810.00,170.79 810.17,170.96 810.45,171.00 C808.70,171.14 806.08,175.95 806.76,177.86 C807.10,178.82 807.94,178.38 809.59,176.36 C812.19,173.18 812.62,171.14 810.74,171.01 C811.43,170.94 812.50,170.36 813.43,169.43 ZM 951.64 67.50 C951.19,68.66 951.86,69.00 954.53,69.00 C956.95,69.00 958.00,68.55 958.00,67.50 C958.00,66.51 957.01,66.00 955.11,66.00 C953.46,66.00 951.97,66.64 951.64,67.50 ZM 862.53 186.96 C863.06,189.09 863.29,189.23 864.07,187.83 C864.58,186.93 864.69,184.72 864.33,182.92 C863.69,179.72 863.66,179.70 862.79,182.05 C862.30,183.37 862.18,185.58 862.53,186.96 ZM 944.19 70.25 C944.00,71.21 944.14,72.00 944.49,72.00 C945.90,72.00 949.00,69.87 949.00,68.90 C949.00,67.14 944.54,68.39 944.19,70.25 ZM 927.00 121.71 C927.00,122.51 927.53,122.99 928.18,122.77 C929.82,122.23 931.57,119.24 930.74,118.41 C929.79,117.45 927.00,119.91 927.00,121.71 ZM 868.59 148.14 C869.31,149.32 872.00,147.28 872.00,145.54 C872.00,144.88 871.34,144.33 870.54,144.33 C868.90,144.33 867.69,146.69 868.59,148.14 ZM 832.00 169.30 C832.00,166.56 831.71,165.89 830.87,166.73 C830.24,167.36 830.03,168.97 830.39,170.43 C831.31,174.09 832.00,173.61 832.00,169.30 ZM 863.57 113.11 C864.58,114.75 866.00,114.02 866.00,111.88 C866.00,110.11 865.75,109.96 864.51,110.99 C863.69,111.67 863.27,112.63 863.57,113.11 ZM 909.22 146.85 C908.94,147.69 909.39,148.06 910.44,147.85 C911.36,147.66 912.08,147.05 912.05,146.50 C911.97,145.02 909.74,145.29 909.22,146.85 ZM 849.00 125.44 C849.00,126.30 849.45,127.00 850.00,127.00 C850.55,127.00 851.00,126.58 851.00,126.06 C851.00,125.54 850.55,124.84 850.00,124.50 C849.45,124.16 849.00,124.58 849.00,125.44 ZM 834.29 220.77 C833.67,219.46 833.09,217.71 832.50,215.50 C830.58,208.30 829.22,200.33 828.42,191.59 C830.01,204.28 830.75,208.46 832.19,213.98 C832.86,216.55 833.64,219.07 834.29,220.77 ZM 808.31 319.45 C811.18,319.60 814.20,319.65 817.40,319.61 C823.48,319.54 825.88,319.46 827.30,318.75 C826.01,319.44 824.06,319.63 819.86,319.79 C816.70,319.91 812.59,319.77 808.31,319.45 ZM 839.82 220.72 C839.99,219.20 839.00,214.43 837.60,210.12 C837.52,209.88 837.44,209.62 837.36,209.34 C837.42,209.53 837.48,209.72 837.54,209.90 C840.40,218.66 840.67,222.81 838.42,223.67 C838.03,223.82 837.66,223.88 837.30,223.84 C838.51,223.79 839.60,222.64 839.82,220.72 ZM 804.50 312.01 C808.90,312.37 814.59,312.74 817.15,312.83 L 821.81 313.00 L 821.80 313.16 L 810.65 312.51 C808.31,312.37 806.03,312.18 803.83,311.95 C804.05,311.97 804.28,311.99 804.50,312.01 ZM 882.00 209.81 C881.99,210.40 881.90,211.09 881.75,211.77 C881.43,212.73 880.74,213.79 879.46,215.25 C881.05,213.32 881.65,211.94 881.92,210.28 C881.95,210.12 881.97,209.96 882.00,209.81 ZM 876.70 205.02 C876.49,206.06 875.52,206.91 873.25,208.34 C875.17,207.13 876.35,205.98 876.70,205.02 ZM 846.91 228.13 C846.20,229.17 845.40,230.42 844.51,231.85 C844.25,232.25 843.99,232.64 843.74,233.03 C843.91,232.75 844.08,232.47 844.25,232.19 C845.05,230.86 845.94,229.51 846.91,228.13 ZM 851.15 222.54 C850.61,223.24 850.07,223.97 849.52,224.70 C849.32,224.91 849.11,225.15 848.87,225.44 C849.60,224.48 850.36,223.51 851.15,222.54 ZM 885.83 220.67 C885.91,220.33 885.99,220.00 886.07,219.67 C886.15,219.43 886.23,219.18 886.31,218.91 C886.15,219.49 885.99,220.08 885.83,220.67 ZM 855.73 243.81 C854.96,245.15 854.21,246.50 853.50,247.87 C854.33,246.27 855.20,244.68 856.12,243.13 C855.99,243.35 855.86,243.58 855.73,243.81 ZM 865.33 215.28 C864.23,216.43 863.10,217.65 861.98,218.92 C863.08,217.67 864.18,216.48 865.26,215.35 ZM 777.11 242.81 L 777.11 242.81 C776.64,244.63 776.15,246.54 775.65,248.53 C776.15,246.53 776.64,244.63 777.11,242.81 ZM 777.65 302.40 L 777.64 302.38 C777.80,302.83 777.99,303.25 778.20,303.63 C777.99,303.25 777.80,302.84 777.65,302.40 ZM 829.14 317.00 C829.51,316.49 829.80,316.03 830.02,315.57 C829.80,316.03 829.51,316.49 829.14,317.00 C829.07,317.09 829.00,317.18 828.94,317.27 C829.00,317.18 829.07,317.09 829.14,317.00 Z" fill="rgb(206,147,88)"/>
<path d="M 881.37 112.08 C879.83,114.71 878.60,117.01 877.21,120.05 C878.47,116.96 879.49,114.18 879.71,113.24 C880.00,111.99 880.64,110.73 881.12,110.43 C882.56,109.54 882.12,106.00 880.57,106.00 C878.71,106.00 857.79,124.06 849.73,132.62 C846.31,136.26 841.87,141.64 839.87,144.58 C836.28,149.86 836.20,149.54 833.90,170.95 C833.93,170.63 833.96,170.30 833.99,169.97 C835.39,155.06 836.08,150.85 837.59,147.88 C838.32,146.43 838.67,145.00 838.36,144.69 C836.88,143.22 850.28,128.77 863.80,117.26 C884.11,99.98 889.38,98.43 881.37,112.08 ZM 858.13 249.83 C859.58,246.43 862.40,241.77 865.49,237.40 C866.53,236.03 867.67,234.59 868.97,233.00 C873.99,226.84 874.90,226.04 876.88,226.02 C878.23,226.00 878.25,228.41 877.16,232.22 C877.07,232.27 877.02,232.44 877.02,232.72 L 877.02 232.73 C876.63,234.03 876.12,235.47 875.50,237.03 C875.14,237.89 874.73,238.80 874.30,239.72 C873.22,242.03 872.18,244.26 871.59,245.53 C870.60,247.49 869.69,249.17 869.08,250.17 L 868.89 250.42 C868.55,250.84 868.26,251.27 868.02,251.67 C867.42,252.59 866.81,253.85 866.20,255.40 C867.86,250.28 869.75,245.55 871.82,241.43 C874.65,235.81 875.41,232.37 873.99,231.49 C872.31,230.45 865.94,237.03 863.13,242.71 C858.52,252.00 858.00,253.17 858.00,254.18 C858.00,254.73 857.12,256.43 856.04,257.94 C855.11,259.25 853.46,263.31 852.10,267.54 C852.21,267.11 852.32,266.69 852.44,266.26 L 852.44 266.26 C852.58,265.78 852.72,265.30 852.87,264.83 C854.33,260.12 855.56,256.39 856.75,253.22 C857.20,252.09 857.66,250.96 858.13,249.83 ZM 935.65 106.00 C935.53,106.15 935.40,106.30 935.26,106.45 C940.85,99.61 945.63,94.43 948.82,91.93 C950.29,90.77 955.69,85.76 960.82,80.79 C971.74,70.20 971.73,69.13 960.79,70.79 C960.64,70.82 960.48,70.84 960.33,70.86 C961.49,70.58 962.37,70.21 962.57,69.89 C962.87,69.40 965.12,69.00 967.56,69.00 C974.17,69.00 973.44,71.98 965.45,77.63 C958.45,82.59 944.23,96.12 935.65,106.00 ZM 957.25 71.36 C947.08,73.10 937.28,75.59 928.61,78.53 C938.00,75.19 948.19,72.55 957.25,71.36 ZM 848.73 286.18 C848.63,288.15 848.56,290.39 848.49,293.00 C848.39,297.33 848.38,300.98 848.52,304.17 C848.28,300.07 848.22,295.60 848.34,291.37 C848.43,289.65 848.56,287.92 848.73,286.18 ZM 834.00 190.71 C834.57,196.00 835.43,201.48 836.42,205.78 C835.68,202.67 835.00,199.01 834.53,195.71 C834.32,194.08 834.14,192.40 834.00,190.71 ZM 865.25 152.09 C862.60,161.76 861.11,171.32 860.39,182.50 C861.12,171.15 862.48,162.01 865.25,152.09 ZM 902.63 153.95 C903.00,154.17 904.04,153.43 905.00,152.25 C903.32,154.32 902.57,154.71 902.63,153.95 ZM 850.94 318.51 C850.37,316.90 849.94,315.28 849.59,313.47 C850.11,315.95 850.81,318.22 851.75,320.53 C851.46,319.83 851.18,319.15 850.94,318.51 ZM 837.28 209.08 C837.36,209.36 837.45,209.64 837.54,209.90 C837.48,209.72 837.42,209.53 837.36,209.34 C837.33,209.26 837.31,209.17 837.28,209.08 Z" fill="rgb(221,179,151)"/>
<path d="M 816.67 161.27 C817.02,160.30 817.86,158.82 818.53,158.00 C819.21,157.18 820.45,155.15 821.30,153.50 C822.14,151.85 828.06,145.14 834.45,138.58 C843.67,129.12 846.31,126.92 847.28,127.92 C848.25,128.91 847.59,129.98 844.12,133.08 C841.71,135.24 840.05,137.00 840.43,137.00 C840.80,137.00 839.51,139.91 837.55,143.47 C835.60,147.03 834.00,150.82 834.00,151.90 C834.00,152.98 833.51,155.14 832.92,156.68 L 831.84 159.50 L 830.39 156.75 C828.44,153.06 826.07,153.29 822.72,157.48 C819.33,161.73 815.70,164.01 816.67,161.27 ZM 885.37 106.43 C885.55,101.13 883.28,100.89 876.92,105.56 C872.99,108.44 871.60,109.00 870.68,108.06 C869.77,107.13 869.99,106.48 871.67,105.18 C872.86,104.26 875.26,102.38 877.02,101.00 C878.77,99.62 881.54,97.75 883.18,96.83 C884.82,95.92 886.91,94.53 887.83,93.75 C892.77,89.58 900.00,86.75 900.00,88.98 C900.00,89.91 891.26,102.79 887.17,107.89 L 885.25 110.29 ZM 973.42 72.65 C973.13,71.91 973.04,70.71 973.20,69.98 C973.38,69.20 972.16,68.38 970.16,67.94 C962.73,66.33 964.06,62.24 971.82,62.87 C974.33,63.07 978.83,62.69 981.81,62.02 C986.41,60.99 987.46,61.03 988.72,62.29 C990.04,63.61 989.60,64.23 984.86,67.73 C979.52,71.66 975.67,74.00 974.53,74.00 C974.21,74.00 973.70,73.39 973.42,72.65 ZM 876.70 205.02 C876.80,204.73 876.83,204.45 876.78,204.20 C876.75,204.05 876.70,203.91 876.65,203.78 C876.63,203.69 876.61,203.59 876.59,203.50 C876.14,201.69 876.48,200.98 878.06,200.48 C881.53,199.38 886.82,194.08 887.49,191.04 C887.84,189.46 888.83,187.90 889.69,187.57 C891.00,187.06 891.13,187.50 890.49,190.23 C890.07,192.03 889.20,196.43 888.56,200.00 C887.49,205.88 887.15,206.50 884.95,206.52 C884.81,206.52 884.67,206.53 884.53,206.53 C883.78,206.25 883.05,206.28 882.56,206.78 C882.55,206.79 882.54,206.80 882.53,206.81 C882.55,206.73 882.58,206.66 882.60,206.59 C883.78,203.53 880.32,203.76 875.22,206.99 C876.12,206.28 876.56,205.69 876.70,205.02 ZM 902.63 153.95 C902.57,154.71 903.32,154.32 905.00,152.25 C906.49,150.41 910.00,149.06 910.00,150.33 C910.00,150.51 907.49,155.46 904.43,161.33 C898.80,172.10 896.42,174.28 895.78,169.25 C895.63,168.04 895.53,167.38 895.31,167.38 C895.46,167.08 895.61,166.79 895.75,166.50 C898.27,161.55 901.21,155.72 902.28,153.56 C905.05,147.97 911.25,138.57 918.36,128.72 C909.60,141.08 901.81,153.14 902.58,153.91 C902.59,153.92 902.61,153.94 902.63,153.95 ZM 868.72 158.50 C868.02,164.68 866.16,172.63 864.78,175.66 C864.37,176.00 864.05,176.53 864.01,176.96 C863.05,178.33 863.00,178.08 863.00,175.79 C863.00,171.18 865.94,158.92 867.59,156.66 C869.11,154.58 869.15,154.65 868.72,158.50 ZM 915.00 139.45 C915.00,136.31 920.19,128.00 922.15,128.00 C923.92,128.00 922.88,131.54 919.75,136.15 C916.37,141.14 915.00,142.09 915.00,139.45 ZM 934.25 119.62 C934.38,119.44 934.51,119.28 934.63,119.14 C937.03,116.18 939.00,113.37 939.00,112.89 C939.00,111.30 937.40,111.95 935.00,114.50 C932.30,117.38 931.00,117.68 931.00,115.42 C931.00,113.71 936.24,108.00 937.81,108.00 C938.33,108.00 939.03,108.99 939.34,110.21 C939.88,112.26 940.12,112.14 942.84,108.46 C946.01,104.17 951.66,98.19 958.13,92.08 C951.45,98.45 945.54,104.84 941.71,110.00 C939.58,112.87 936.31,117.08 934.25,119.62 ZM 809.77 179.78 C808.28,182.18 806.59,184.90 804.67,188.00 C798.70,197.65 798.53,202.51 803.81,213.22 C801.61,209.02 799.32,205.18 798.51,204.37 C796.43,202.29 796.81,195.50 799.00,195.50 C799.13,195.50 799.29,195.45 799.46,195.35 C799.49,195.36 799.52,195.37 799.54,195.38 C800.35,195.69 801.00,195.52 801.00,195.01 C801.00,194.70 801.56,193.46 802.42,191.84 C802.59,191.57 802.74,191.29 802.90,191.00 C804.21,188.52 806.95,184.02 808.97,181.00 C809.22,180.62 809.49,180.22 809.77,179.78 ZM 806.76 177.86 C806.08,175.95 808.70,171.14 810.45,171.00 C810.54,171.02 810.63,171.02 810.74,171.01 C812.62,171.14 812.19,173.18 809.59,176.36 C807.94,178.38 807.10,178.82 806.76,177.86 ZM 799.09 217.75 C796.30,211.90 793.92,211.43 791.54,216.30 C791.93,215.40 792.26,214.72 792.53,214.32 C793.45,212.91 793.61,211.88 792.97,211.48 C792.42,211.14 792.23,210.44 792.54,209.93 C793.39,208.55 796.98,208.80 797.15,210.25 C797.23,210.94 797.37,212.18 797.46,213.00 C797.59,214.12 798.55,216.41 800.02,219.37 C800.01,219.44 800.00,219.51 800.00,219.60 C799.67,218.95 799.36,218.33 799.09,217.75 ZM 951.64 67.50 C951.97,66.64 953.46,66.00 955.11,66.00 C957.01,66.00 958.00,66.51 958.00,67.50 C958.00,68.55 956.95,69.00 954.53,69.00 C951.86,69.00 951.19,68.66 951.64,67.50 ZM 862.53 186.96 C862.18,185.58 862.30,183.37 862.79,182.05 C863.66,179.70 863.69,179.72 864.33,182.92 C864.69,184.72 864.58,186.93 864.07,187.83 C863.29,189.23 863.06,189.09 862.53,186.96 ZM 944.19 70.25 C944.54,68.39 949.00,67.14 949.00,68.90 C949.00,69.87 945.90,72.00 944.49,72.00 C944.14,72.00 944.00,71.21 944.19,70.25 ZM 927.00 121.71 C927.00,119.91 929.79,117.45 930.74,118.41 C931.57,119.24 929.82,122.23 928.18,122.77 C927.53,122.99 927.00,122.51 927.00,121.71 ZM 868.59 148.14 C867.69,146.69 868.90,144.33 870.54,144.33 C871.34,144.33 872.00,144.88 872.00,145.54 C872.00,147.28 869.31,149.32 868.59,148.14 ZM 863.57 113.11 C863.27,112.63 863.69,111.67 864.51,110.99 C865.75,109.96 866.00,110.11 866.00,111.88 C866.00,114.02 864.58,114.75 863.57,113.11 ZM 909.22 146.85 C909.74,145.29 911.97,145.02 912.05,146.50 C912.08,147.05 911.36,147.66 910.44,147.85 C909.39,148.06 908.94,147.69 909.22,146.85 ZM 849.00 125.44 C849.00,124.58 849.45,124.16 850.00,124.50 C850.55,124.84 851.00,125.54 851.00,126.06 C851.00,126.58 850.55,127.00 850.00,127.00 C849.45,127.00 849.00,126.30 849.00,125.44 ZM 844.07 246.46 C846.28,242.01 848.66,237.58 851.05,233.57 C852.70,230.79 854.86,227.71 857.24,224.65 C852.63,230.84 848.20,238.16 844.07,246.46 ZM 887.37 186.06 C887.94,184.61 888.55,182.95 889.23,181.00 C889.67,179.77 890.41,177.97 891.30,175.93 C890.67,177.49 890.04,179.10 889.52,180.50 C888.71,182.67 888.01,184.49 887.37,186.06 ZM 831.09 290.38 C831.04,290.78 830.99,291.17 830.94,291.55 C831.18,289.26 831.45,286.92 831.75,284.65 C831.99,283.04 832.24,281.44 832.51,279.87 C832.07,282.77 831.61,286.18 831.09,290.38 ZM 819.58 164.58 C818.64,165.89 817.49,167.61 815.97,169.95 C816.07,169.80 816.16,169.65 816.25,169.50 C817.29,167.77 818.43,166.09 819.58,164.58 ZM 823.62 159.94 C825.08,158.56 826.22,157.89 826.67,158.34 C826.34,158.01 825.05,158.71 823.62,159.94 ZM 880.10 214.42 C879.91,214.69 879.69,214.96 879.46,215.25 C878.21,216.67 876.40,218.46 873.82,220.90 C876.79,218.09 878.81,216.02 880.10,214.42 ZM 816.67 234.43 C816.59,234.31 816.51,234.20 816.42,234.08 C813.73,230.36 811.11,226.34 808.67,222.17 C811.17,226.41 813.92,230.62 816.67,234.43 ZM 883.72 192.96 C881.82,195.46 879.37,197.25 875.00,200.20 C879.31,197.29 881.82,195.41 883.72,192.96 ZM 794.48 255.23 L 794.48 255.23 C789.08,249.53 786.35,246.39 785.05,244.28 C786.38,246.40 789.16,249.60 794.48,255.23 ZM 837.63 260.73 C838.82,257.77 840.20,254.60 841.70,251.37 L 841.72 251.35 C840.32,254.36 838.95,257.49 837.63,260.73 ZM 784.00 241.30 C784.00,241.26 784.00,241.22 784.00,241.18 C784.00,240.70 784.13,239.87 784.37,238.78 C784.45,238.40 784.55,237.99 784.66,237.54 C784.26,239.24 784.02,240.57 784.00,241.30 ZM 871.50 209.63 C872.00,209.22 872.46,208.88 872.86,208.60 C872.40,208.93 871.95,209.27 871.50,209.63 Z" fill="rgb(212,141,65)"/>
<path d="M 447.58 301.00 L 445.52 303.00 L 422.51 302.91 C409.85,302.86 398.02,302.39 396.20,301.87 C392.15,300.70 391.18,298.56 393.53,295.96 C395.21,294.11 396.73,294.00 419.65,294.00 C436.59,294.00 442.22,293.84 443.61,293.10 C443.39,293.85 443.11,294.49 442.80,294.80 C441.94,295.66 435.11,296.00 418.41,296.00 C399.62,296.00 395.11,296.26 394.69,297.38 C393.44,300.64 396.19,301.00 422.01,301.00 ZM 580.18 351.77 C582.94,351.70 586.16,351.62 589.50,351.53 C598.30,351.30 665.12,350.84 738.00,350.51 C749.84,350.46 761.36,350.40 772.34,350.34 C769.98,350.36 767.60,350.38 765.20,350.39 C701.10,350.82 658.37,351.47 658.17,352.03 C657.78,353.14 606.39,353.21 587.50,352.12 C584.66,351.96 582.23,351.84 580.18,351.77 ZM 409.63 287.81 C410.88,287.90 412.60,287.95 414.87,287.96 L 421.16 288.14 C433.45,288.49 443.61,288.83 443.75,288.89 C444.21,289.09 444.16,290.70 443.84,292.22 C442.98,291.36 438.48,291.09 424.10,290.84 C406.86,290.55 403.95,290.27 402.27,288.75 C401.76,288.29 401.18,287.87 400.65,287.55 ZM 873.82 347.42 C873.82,347.33 873.81,347.25 873.79,347.16 C873.50,345.62 862.17,345.48 718.62,345.28 C615.14,345.13 580.58,345.03 568.73,344.40 C580.55,345.01 615.03,345.05 718.41,345.02 C859.88,344.97 873.10,345.11 873.67,346.59 C873.77,346.86 873.82,347.14 873.82,347.42 ZM 559.80 300.80 C560.46,300.14 561.00,297.67 561.00,295.30 L 561.00 291.00 L 573.53 291.00 C583.64,291.00 587.53,291.29 591.99,293.77 C588.76,292.39 585.25,292.48 577.24,292.78 C563.30,293.29 561.00,293.94 561.00,297.34 C561.00,298.58 560.46,300.14 559.80,300.80 ZM 249.78 299.26 C246.09,303.62 241.59,304.43 240.48,300.93 C239.97,299.32 241.12,297.48 245.66,292.63 C247.43,290.74 249.89,287.98 252.31,285.18 C251.75,285.88 251.16,286.61 250.55,287.38 C247.35,291.39 243.00,298.49 243.00,299.71 C243.00,299.87 244.54,300.00 246.43,300.00 C247.88,300.00 248.89,299.82 249.78,299.26 ZM 295.38 298.25 C291.78,302.01 290.15,303.00 287.58,303.00 C285.79,303.00 284.03,302.70 283.67,302.33 C282.26,300.93 283.10,298.07 285.45,296.22 C286.79,295.16 290.90,290.29 294.56,285.40 C296.06,283.40 297.66,281.32 299.14,279.42 C294.19,285.78 288.00,294.19 288.00,294.75 C288.00,295.08 287.28,296.14 286.40,297.11 C284.27,299.46 285.41,301.00 289.27,301.00 C291.56,301.00 293.46,299.98 296.25,297.25 L 297.52 296.02 ZM 872.05 240.97 C873.19,237.93 873.33,234.32 872.15,233.59 C871.21,233.01 867.28,237.03 864.63,241.29 C861.71,246.00 858.00,253.25 858.00,254.24 C858.00,254.77 857.12,256.43 856.04,257.94 C857.12,256.43 858.00,254.73 858.00,254.18 C858.00,253.17 858.52,252.00 863.13,242.71 C865.94,237.03 872.31,230.45 873.99,231.49 C875.37,232.34 874.69,235.62 872.05,240.97 ZM 949.87 91.05 C951.22,89.69 952.65,88.27 954.15,86.78 C961.22,79.79 967.00,73.32 967.00,72.42 C967.00,71.00 966.06,70.85 960.25,71.29 C957.73,71.48 955.09,71.81 952.36,72.26 C953.98,71.94 955.61,71.65 957.25,71.36 C957.59,71.32 957.92,71.28 958.26,71.24 C958.99,71.15 959.70,71.02 960.33,70.86 C960.48,70.84 960.64,70.82 960.79,70.79 C971.73,69.13 971.74,70.20 960.82,80.79 C956.55,84.93 952.09,89.10 949.87,91.05 ZM 880.61 371.58 C881.51,373.49 882.98,375.00 883.92,375.00 C886.51,375.00 887.89,373.82 888.88,369.87 C888.50,371.64 888.09,373.15 887.64,374.39 C887.05,375.72 886.36,377.01 885.74,377.88 C885.51,378.13 885.27,378.34 885.02,378.49 C884.47,378.82 882.93,376.69 881.57,373.74 C881.55,373.69 881.53,373.65 881.50,373.60 C880.18,370.70 877.75,367.19 876.06,365.70 C877.72,367.15 879.74,369.75 880.61,371.58 ZM 498.00 287.83 C498.00,294.34 498.30,299.97 498.67,300.33 C498.30,299.97 498.00,295.20 498.00,289.74 C498.00,276.67 497.40,276.09 484.00,276.02 C475.67,275.98 472.69,275.53 472.17,273.79 C472.72,275.59 476.06,275.97 486.25,275.98 L 498.00 276.00 ZM 863.27 367.49 C865.12,367.64 867.66,368.59 869.61,369.82 C869.83,369.99 870.05,370.15 870.26,370.31 C871.01,370.87 871.74,371.55 872.46,372.33 C870.55,370.41 868.55,369.30 866.99,369.71 C865.90,370.00 863.87,369.49 862.48,368.58 C861.26,367.78 858.26,367.36 842.49,367.16 C853.75,367.23 861.39,367.34 863.27,367.49 ZM 880.33 111.25 C881.36,105.85 878.69,106.65 867.61,115.98 C874.02,110.45 879.65,106.00 880.57,106.00 C882.12,106.00 882.56,109.54 881.12,110.43 C880.84,110.60 880.52,111.08 880.24,111.69 C880.28,111.54 880.31,111.39 880.33,111.25 ZM 264.28 281.66 C261.89,284.75 258.66,288.69 254.44,293.73 C256.47,291.15 259.39,287.55 262.21,284.18 C262.96,283.29 263.65,282.45 264.28,281.66 ZM 918.78 128.12 C923.88,120.80 928.02,115.23 932.29,110.05 C928.30,115.03 923.42,121.59 918.78,128.12 ZM 600.33 299.67 C600.02,299.41 599.72,299.17 599.43,298.93 C602.79,301.29 605.09,302.18 607.38,301.91 C604.95,302.23 602.51,301.47 600.33,299.67 ZM 870.65 243.86 C869.03,247.37 867.54,251.26 866.20,255.40 C866.04,255.81 865.89,256.23 865.73,256.68 C867.22,251.79 868.88,247.40 870.65,243.86 ZM 877.21 120.05 C876.22,122.21 875.14,124.74 873.81,128.03 C876.56,121.10 877.38,119.17 878.26,117.39 C877.94,118.22 877.59,119.12 877.21,120.05 ZM 261.14 274.73 C263.87,271.69 265.17,271.00 267.03,271.00 C265.43,271.02 263.96,271.77 261.14,274.73 ZM 846.05 136.74 C847.30,135.28 848.58,133.85 849.73,132.62 C850.64,131.66 851.70,130.58 852.88,129.43 C850.41,131.91 848.10,134.39 846.05,136.74 ZM 394.00 278.79 C394.00,276.87 395.02,274.83 396.92,272.92 C394.86,274.99 393.90,277.23 394.05,279.49 C394.02,279.25 394.00,279.01 394.00,278.79 ZM 451.49 286.76 C453.38,288.65 454.21,290.46 453.93,292.41 C454.09,290.41 453.27,288.55 451.49,286.76 ZM 574.50 358.55 L 574.50 358.55 C574.07,358.16 573.66,357.75 573.25,357.33 C573.02,357.09 572.80,356.86 572.59,356.64 C573.80,357.87 575.30,359.23 576.82,360.45 C576.00,359.83 575.22,359.19 574.50,358.55 ZM 397.81 286.33 C397.20,285.81 396.55,285.04 395.98,284.16 C396.12,284.34 396.26,284.52 396.41,284.69 ZM 570.19 352.53 C570.37,352.17 570.88,351.99 571.71,351.98 C570.93,352.13 570.44,352.34 570.20,352.61 C570.19,352.58 570.19,352.56 570.19,352.53 ZM 587.93 366.00 C586.48,365.70 584.97,365.19 583.45,364.52 C584.99,365.16 586.64,365.72 587.94,366.00 ZM 874.01 364.03 C874.26,364.21 874.51,364.41 874.76,364.61 C874.51,364.41 874.27,364.22 874.02,364.03 C871.69,362.33 868.82,361.38 858.64,360.90 C868.82,361.38 871.69,362.33 874.01,364.03 ZM 873.76 347.92 C873.67,348.34 873.45,348.70 873.13,348.92 C873.44,348.64 873.66,348.30 873.76,347.92 ZM 267.74 271.02 C268.66,271.08 269.31,271.29 269.62,271.73 C269.29,271.31 268.66,271.09 267.74,271.02 ZM 867.85 143.64 C866.88,146.49 866.02,149.30 865.25,152.09 L 865.18 152.34 C865.97,149.46 866.85,146.57 867.85,143.64 Z" fill="rgb(221,201,194)"/>
<path d="M 0.00 198.50 L 0.00 0.00 L 517.50 0.00 L 1035.00 0.00 L 1035.00 198.50 L 1035.00 397.00 L 517.50 397.00 L 0.00 397.00 L 0.00 198.50 ZM 890.47 383.50 C892.23,380.75 894.27,376.28 895.01,373.57 C896.67,367.50 896.91,350.17 895.37,346.90 C894.75,345.58 893.43,342.57 892.45,340.20 C890.48,335.48 886.49,331.54 879.58,327.50 C868.93,321.25 863.41,303.52 865.89,283.50 C867.23,272.67 868.98,266.97 876.77,248.00 C881.92,235.45 888.00,214.61 890.48,201.00 C892.27,191.18 898.05,177.64 909.92,155.50 C912.58,150.53 929.97,124.83 933.93,120.00 C935.97,117.53 939.47,113.03 941.71,110.00 C949.72,99.20 966.88,83.01 981.04,72.89 C992.33,64.81 994.00,63.36 994.00,61.61 C994.00,60.30 992.85,60.01 987.75,60.06 C980.27,60.14 967.05,61.55 961.50,62.86 C959.30,63.38 954.93,64.32 951.80,64.95 C948.66,65.57 938.76,68.49 929.80,71.44 C897.92,81.91 867.07,102.65 835.83,134.61 C817.83,153.02 807.92,167.23 795.52,192.46 C785.97,211.87 782.10,222.83 775.56,248.89 L 770.95 267.28 L 770.73 288.61 C770.46,313.49 770.34,313.16 780.50,315.00 C783.80,315.60 788.53,316.54 791.00,317.10 C798.76,318.84 812.13,320.09 819.86,319.79 C826.46,319.53 827.50,319.22 829.14,317.00 C830.67,314.92 830.84,313.64 830.16,309.38 C829.60,305.91 829.90,299.82 831.09,290.38 C833.17,273.84 834.12,269.43 837.32,261.50 C847.81,235.51 860.94,216.46 874.59,207.40 C880.03,203.78 883.83,203.40 882.60,206.59 C882.27,207.46 882.00,209.30 882.00,210.68 C882.00,212.55 879.77,215.30 873.35,221.35 C857.70,236.10 846.31,257.81 843.90,277.50 C841.33,298.46 841.87,311.04 845.74,320.27 C847.06,323.41 847.11,324.43 846.04,326.43 C845.33,327.75 843.80,329.08 842.63,329.39 C840.93,329.84 792.17,329.56 700.50,328.60 C697.20,328.56 662.42,328.64 623.22,328.77 C542.45,329.03 549.28,328.17 552.51,337.67 C559.07,356.97 578.63,372.62 602.00,377.28 C609.23,378.72 627.32,378.74 633.00,377.32 C644.53,374.43 649.75,372.75 652.81,370.95 C654.63,369.88 657.18,369.00 658.49,369.00 C659.80,369.00 662.03,368.56 663.45,368.02 C665.08,367.40 702.09,367.02 763.00,366.98 C851.56,366.93 860.17,367.07 862.48,368.58 C863.87,369.49 865.90,370.00 866.99,369.71 C871.34,368.58 879.00,379.14 879.00,386.27 C879.00,388.10 879.52,390.12 880.16,390.76 C882.01,392.61 886.82,389.22 890.47,383.50 ZM 249.79 299.25 C270.68,274.54 272.84,271.00 267.03,271.00 C264.54,271.00 263.05,272.24 257.78,278.70 C254.33,282.93 248.87,289.20 245.66,292.63 C241.12,297.48 239.97,299.32 240.48,300.93 C241.59,304.44 246.09,303.62 249.79,299.25 ZM 295.38 298.25 L 299.93 293.50 L 330.72 293.21 L 361.51 292.92 L 365.30 297.46 C369.34,302.29 373.51,303.50 375.95,300.56 C377.24,299.00 376.24,297.21 368.93,288.00 C366.97,285.52 363.59,280.93 361.43,277.80 C359.27,274.66 356.47,271.62 355.20,271.05 C353.82,270.41 343.82,270.00 329.98,270.00 L 307.05 270.00 L 304.14 273.25 C302.54,275.04 298.23,280.50 294.56,285.40 C290.90,290.29 286.79,295.16 285.45,296.22 C283.10,298.07 282.26,300.93 283.67,302.33 C284.03,302.70 285.79,303.00 287.58,303.00 C290.15,303.00 291.78,302.01 295.38,298.25 ZM 449.76 298.88 C454.79,294.01 455.28,290.55 451.49,286.76 C448.08,283.35 445.58,283.00 424.57,283.00 C410.30,283.00 405.96,282.69 404.44,281.56 C402.89,280.40 402.72,279.76 403.61,278.31 C404.61,276.67 406.73,276.48 426.61,276.24 C445.24,276.02 448.68,275.74 449.68,274.39 C450.33,273.52 450.62,272.17 450.32,271.40 C449.88,270.25 445.32,270.00 424.82,270.00 L 399.85 270.00 L 396.92 272.92 C395.02,274.83 394.00,276.87 394.00,278.79 C394.00,281.83 397.30,287.00 399.24,287.00 C399.85,287.00 401.21,287.79 402.27,288.75 C403.95,290.27 406.86,290.55 424.10,290.84 C440.39,291.12 444.00,291.44 444.00,292.59 C444.00,293.76 439.93,294.00 419.65,294.00 C396.73,294.00 395.21,294.11 393.53,295.96 C391.18,298.56 392.15,300.70 396.20,301.87 C398.02,302.39 409.85,302.86 422.51,302.91 L 445.52 303.00 L 449.76 298.88 ZM 559.80 300.80 C560.46,300.14 561.00,298.58 561.00,297.34 C561.00,293.94 563.30,293.29 577.24,292.78 C591.12,292.27 591.49,292.38 600.33,299.67 C603.12,301.97 606.33,302.58 609.42,301.39 C611.86,300.46 611.30,298.28 608.00,295.84 C606.35,294.62 605.00,293.12 605.00,292.51 C605.00,291.89 606.58,289.87 608.50,288.00 C612.41,284.21 612.98,280.79 610.48,275.97 C607.54,270.27 605.64,269.94 577.77,270.23 L 552.50 270.50 L 552.22 284.95 C552.07,292.90 552.17,299.99 552.44,300.70 C553.07,302.33 558.20,302.40 559.80,300.80 ZM 642.35 297.75 L 646.39 293.50 L 663.14 293.15 L 679.88 292.80 L 684.35 297.40 C687.68,300.83 689.58,302.00 691.79,302.00 C698.24,302.00 697.66,300.07 687.04,286.20 C681.54,279.02 676.04,272.44 674.80,271.57 C671.92,269.56 653.67,269.30 652.03,271.25 C649.02,274.83 645.00,280.35 645.00,280.91 C645.00,281.27 642.73,284.69 639.97,288.53 C634.34,296.33 633.01,299.76 635.11,301.09 C637.39,302.53 638.13,302.19 642.35,297.75 ZM 195.65 294.75 C198.93,291.31 203.00,286.48 204.69,284.00 C206.38,281.52 208.72,278.64 209.88,277.60 C211.05,276.55 212.00,274.63 212.00,273.35 L 212.00 271.00 L 189.11 271.00 L 166.22 271.00 L 155.91 282.25 C150.24,288.44 144.52,294.70 143.19,296.17 C141.87,297.64 141.08,299.32 141.45,299.92 C141.90,300.64 149.93,301.00 165.90,301.00 L 189.68 301.00 L 195.65 294.75 ZM 214.03 296.58 C216.31,294.15 220.08,289.54 222.42,286.33 C224.76,283.12 227.45,279.86 228.40,279.07 C230.60,277.26 233.12,272.45 232.29,271.63 C231.95,271.28 230.42,271.00 228.89,271.00 C226.85,271.00 225.24,272.08 222.81,275.09 C220.99,277.34 216.63,282.63 213.11,286.84 C205.13,296.41 203.66,298.64 204.47,299.96 C205.94,302.34 209.97,300.91 214.03,296.58 ZM 229.81 299.60 C231.30,298.83 234.06,296.02 235.94,293.35 C237.83,290.68 241.94,285.56 245.09,281.97 C252.09,273.99 252.80,271.63 248.33,271.19 C245.39,270.91 244.52,271.68 235.99,282.13 C224.78,295.84 223.62,297.58 224.36,299.49 C225.08,301.37 226.34,301.39 229.81,299.60 ZM 266.59 300.23 C270.30,297.75 289.00,274.14 289.00,271.95 C289.00,271.43 287.51,271.00 285.69,271.00 C282.91,271.00 281.60,271.91 277.44,276.71 C268.70,286.82 261.00,297.36 261.00,299.20 C261.00,301.06 264.42,301.69 266.59,300.23 ZM 505.48 298.75 C505.77,297.51 506.12,292.00 506.25,286.50 L 506.50 276.50 L 518.29 276.00 C527.17,275.62 530.30,275.14 530.98,274.03 C533.30,270.27 530.85,269.96 501.13,270.23 C474.04,270.49 472.51,270.60 472.16,272.38 C471.60,275.30 473.76,275.97 484.00,276.02 C497.40,276.09 498.00,276.67 498.00,289.74 C498.00,295.20 498.30,299.97 498.67,300.33 C499.03,300.70 500.60,301.00 502.15,301.00 C504.25,301.00 505.09,300.43 505.48,298.75 ZM 880.61 371.58 C879.71,369.70 877.61,367.01 875.93,365.59 C869.27,359.99 871.62,360.09 759.50,360.89 L 656.50 361.63 L 649.50 364.45 C645.65,365.99 640.70,367.80 638.50,368.46 C636.30,369.12 633.68,370.02 632.68,370.46 C629.40,371.91 601.97,370.43 597.00,368.54 C594.53,367.59 590.66,366.50 588.42,366.10 C586.17,365.70 582.57,364.31 580.42,363.02 C576.24,360.52 570.00,354.58 570.00,353.11 C570.00,351.59 574.10,351.36 587.50,352.12 C606.39,353.21 657.78,353.14 658.17,352.03 C658.37,351.47 701.10,350.82 765.20,350.39 C823.88,350.00 872.44,349.35 873.09,348.94 C873.75,348.53 874.01,347.47 873.67,346.59 C873.10,345.11 859.88,344.97 718.41,345.02 C571.28,345.06 563.70,344.97 562.39,343.28 C561.63,342.30 561.12,340.38 561.26,339.00 L 561.50 336.50 L 589.00 335.89 C604.12,335.56 670.03,335.22 735.46,335.15 C840.47,335.02 854.60,334.83 855.94,333.49 C857.30,332.13 857.12,331.31 854.20,325.73 C849.21,316.20 848.08,309.72 848.49,293.00 C848.79,281.02 849.31,276.96 851.47,269.60 C852.90,264.70 854.96,259.46 856.04,257.94 C857.12,256.43 858.00,254.77 858.00,254.24 C858.00,253.25 861.71,246.00 864.63,241.29 C867.28,237.03 871.21,233.01 872.15,233.59 C873.54,234.45 873.11,239.28 871.36,242.50 C864.64,254.89 859.18,279.97 859.08,299.00 C858.99,313.69 861.58,318.80 876.54,333.45 C890.61,347.23 891.71,349.70 889.98,363.46 C888.82,372.64 887.58,375.00 883.92,375.00 C882.98,375.00 881.51,373.49 880.61,371.58 ZM 804.50 312.01 C794.83,311.22 786.78,309.40 781.80,306.88 C777.79,304.85 776.54,301.61 777.17,294.93 C777.45,292.00 777.91,291.45 780.35,291.17 C781.92,290.99 785.52,291.72 788.35,292.78 C807.60,300.02 819.24,300.66 815.18,294.26 C814.75,293.58 811.96,292.56 808.98,292.00 C801.76,290.63 786.31,285.33 782.25,282.83 C778.03,280.24 777.48,277.63 778.82,266.76 C779.87,258.22 781.07,255.00 783.22,255.00 C783.75,255.00 786.96,257.41 790.35,260.35 C803.24,271.55 815.00,277.31 815.00,272.41 C815.00,270.85 811.29,267.10 809.68,267.03 C808.59,266.99 800.11,261.13 798.10,259.03 C786.62,247.05 784.00,243.77 784.00,241.39 C784.00,238.44 788.32,223.76 791.09,217.30 C793.62,211.39 796.12,211.53 799.09,217.75 C804.42,228.93 820.00,253.03 821.87,252.98 C823.79,252.94 825.33,250.81 825.33,248.22 C825.33,246.22 824.01,243.66 821.27,240.38 C815.20,233.08 808.39,222.50 803.83,213.25 C798.53,202.52 798.69,197.66 804.67,188.00 C817.86,166.70 820.20,163.18 822.95,160.55 C824.62,158.95 826.29,157.96 826.67,158.34 C827.05,158.72 827.46,166.11 827.57,174.77 C827.77,190.35 829.41,203.91 832.50,215.50 C834.26,222.14 836.04,224.58 838.42,223.67 C840.67,222.81 840.40,218.66 837.54,209.90 C834.85,201.68 832.63,182.82 833.45,175.18 C836.20,149.48 836.06,150.19 839.87,144.58 C844.46,137.83 853.64,128.06 863.13,119.82 C877.98,106.94 881.48,105.19 880.33,111.25 C879.99,113.04 879.13,115.67 878.41,117.09 C877.21,119.49 876.31,121.67 870.85,135.50 C864.54,151.46 861.51,165.06 860.39,182.50 C859.81,191.54 859.94,192.73 861.73,194.93 L 863.71 197.37 L 865.26 194.93 C866.19,193.47 867.24,187.91 867.90,181.00 C869.54,163.82 870.91,157.58 877.23,138.50 C881.91,124.34 893.64,100.82 899.12,94.60 C907.82,84.72 938.73,72.93 960.25,71.29 C966.06,70.85 967.00,71.00 967.00,72.42 C967.00,73.32 961.22,79.79 954.15,86.78 C933.51,107.22 928.18,113.84 907.62,144.56 C905.76,147.34 903.36,151.39 902.28,153.56 C901.21,155.72 898.27,161.55 895.75,166.50 C893.24,171.45 890.30,177.98 889.23,181.00 C885.16,192.54 883.97,194.14 875.00,200.20 C863.84,207.74 850.88,221.22 844.25,232.19 C841.36,236.96 839.00,241.39 839.00,242.03 C839.00,242.67 838.16,244.39 837.13,245.85 C836.10,247.31 834.95,249.62 834.57,251.00 C834.19,252.38 833.49,254.40 833.01,255.50 C830.82,260.56 825.89,277.23 824.57,284.00 C823.77,288.12 822.82,296.34 822.46,302.25 L 821.81 313.00 L 817.15 312.83 C814.59,312.74 808.90,312.37 804.50,312.01 ZM 305.46 286.93 C304.41,285.24 306.01,282.19 309.58,279.06 L 313.07 276.00 L 331.32 276.00 L 349.57 276.00 L 352.79 280.18 C356.40,284.88 356.75,286.50 354.36,287.42 C351.70,288.44 306.11,287.98 305.46,286.93 ZM 561.39 283.58 C561.10,282.81 561.00,280.89 561.18,279.33 L 561.50 276.50 L 579.50 276.22 C601.48,275.87 602.00,275.97 602.00,280.41 C602.00,282.57 601.43,284.01 600.42,284.39 C599.55,284.73 590.53,285.00 580.39,285.00 C565.40,285.00 561.84,284.73 561.39,283.58 ZM 651.48 286.97 C651.14,286.41 652.37,283.82 654.24,281.22 C657.37,276.86 657.98,276.48 662.39,276.19 C665.27,276.01 667.78,276.40 668.74,277.19 C671.42,279.40 676.00,286.20 675.42,287.12 C674.65,288.37 652.26,288.23 651.48,286.97 Z" fill="rgb(243,231,225)"/>
<path d="M 0.00 198.50 L 0.00 0.00 L 517.50 0.00 L 1035.00 0.00 L 1035.00 198.50 L 1035.00 397.00 L 517.50 397.00 L 0.00 397.00 L 0.00 198.50 ZM 890.47 383.50 C892.23,380.75 894.27,376.28 895.01,373.57 C896.67,367.50 896.91,350.17 895.37,346.90 C894.75,345.58 893.43,342.57 892.45,340.20 C890.47,335.47 886.49,331.54 879.52,327.46 C874.98,324.80 870.73,319.03 868.42,312.41 C867.06,308.50 868.33,277.27 869.92,275.68 C870.51,275.09 871.00,273.17 871.00,271.42 C871.00,267.82 872.65,263.38 877.47,254.00 C879.31,250.43 882.00,243.45 883.45,238.50 C884.89,233.55 886.93,226.77 887.97,223.43 C889.02,220.09 890.61,213.40 891.52,208.56 C894.33,193.56 899.87,178.51 907.00,166.50 C908.63,163.75 910.77,159.93 911.75,158.00 C919.63,142.53 941.46,112.45 953.93,99.86 C963.66,90.03 977.73,78.03 986.00,72.50 C994.74,66.65 997.00,64.38 997.00,61.44 C997.00,57.17 993.78,56.53 978.65,57.81 C965.58,58.90 960.02,59.88 951.07,62.64 C948.64,63.39 945.77,64.00 944.70,64.00 C941.28,64.00 909.80,75.01 907.10,77.16 C905.67,78.29 900.45,81.45 895.50,84.18 C885.32,89.79 878.79,94.09 871.45,100.01 C868.67,102.25 864.93,104.97 863.15,106.06 C857.54,109.47 829.41,136.79 822.55,145.50 C820.38,148.25 817.23,151.99 815.55,153.80 C812.37,157.25 806.73,165.89 800.42,177.00 C798.38,180.57 796.18,184.18 795.53,185.00 C794.87,185.82 793.73,188.07 793.01,190.00 C792.28,191.93 790.00,197.10 787.95,201.50 C783.56,210.93 779.40,221.49 778.71,225.00 C778.43,226.38 777.24,231.10 776.04,235.50 C774.69,240.50 774.07,245.01 774.39,247.55 C774.70,249.96 774.12,254.60 772.97,259.05 C771.91,263.15 771.03,269.54 771.02,273.25 C771.00,278.29 770.65,280.00 769.63,280.00 C768.58,280.00 768.09,282.81 767.55,291.78 C766.85,303.62 767.37,309.00 769.21,309.00 C769.76,309.00 771.10,310.12 772.18,311.50 C773.26,312.88 774.99,314.00 776.03,314.00 C777.07,314.00 778.81,314.96 779.90,316.12 C781.34,317.67 782.71,318.12 784.94,317.80 C786.62,317.55 788.00,317.65 788.00,318.01 C788.00,319.33 793.17,321.00 797.25,321.00 C799.53,321.00 805.02,321.52 809.45,322.16 C818.86,323.51 827.99,322.64 831.14,320.09 C833.24,318.39 833.33,317.65 833.15,303.40 C833.02,292.48 833.37,287.19 834.48,283.59 C835.32,280.89 836.00,277.03 836.00,275.01 C836.00,272.99 837.12,269.13 838.50,266.42 C839.87,263.71 840.99,260.59 841.00,259.48 C841.00,258.36 843.06,253.86 845.58,249.48 C848.10,245.09 851.30,239.25 852.70,236.50 C855.88,230.25 864.61,219.90 870.96,214.85 C873.61,212.73 876.06,211.00 876.39,211.00 C878.09,211.00 876.31,213.43 869.36,220.61 C859.55,230.74 847.73,250.13 849.56,253.09 C849.87,253.59 849.74,254.00 849.27,254.00 C848.80,254.00 847.20,256.40 845.72,259.34 C842.85,265.00 838.99,286.27 839.01,296.37 C839.01,302.55 840.65,313.13 841.73,313.93 C842.15,314.24 842.65,317.05 842.83,320.17 C843.10,324.91 842.85,326.01 841.27,326.85 C840.10,327.48 833.67,327.64 824.23,327.28 C812.15,326.82 808.73,326.98 807.41,328.08 C806.03,329.22 797.23,329.39 756.12,329.09 C728.83,328.89 703.80,328.68 700.50,328.63 C697.20,328.58 662.42,328.64 623.22,328.77 C542.45,329.03 549.28,328.17 552.51,337.67 C556.90,350.57 567.90,362.99 580.58,369.36 C594.87,376.53 602.42,378.35 618.00,378.41 C628.30,378.44 631.44,377.95 643.50,374.44 C646.80,373.48 650.62,372.71 652.00,372.74 C653.38,372.77 657.65,372.16 661.50,371.39 C671.21,369.45 858.33,368.84 864.50,370.72 C868.58,371.97 875.37,377.29 874.28,378.39 C873.26,379.41 876.24,387.00 877.66,387.00 C878.40,387.00 879.00,387.58 879.00,388.30 C879.00,389.02 879.52,390.12 880.16,390.76 C882.01,392.61 886.82,389.22 890.47,383.50 ZM 230.00 301.00 C230.00,299.90 230.41,299.00 230.91,299.00 C231.42,299.00 233.53,296.64 235.61,293.75 C237.70,290.86 241.97,285.56 245.10,281.97 C252.22,273.84 252.88,271.50 248.05,271.50 C244.83,271.50 243.89,272.37 234.09,284.50 C228.32,291.65 223.04,297.38 222.37,297.22 C220.97,296.91 219.56,300.48 220.49,301.99 C220.84,302.55 223.12,303.00 225.56,303.00 C229.33,303.00 230.00,302.70 230.00,301.00 ZM 249.79 299.25 C270.68,274.54 272.84,271.00 267.03,271.00 C264.54,271.00 263.05,272.24 257.78,278.70 C254.33,282.93 248.87,289.20 245.66,292.63 C241.12,297.48 239.97,299.32 240.48,300.93 C241.59,304.44 246.09,303.62 249.79,299.25 ZM 296.90 299.22 L 300.50 295.44 L 330.84 295.47 L 361.18 295.50 L 363.06 297.83 C364.10,299.11 365.36,299.90 365.86,299.59 C366.36,299.28 367.33,299.69 368.01,300.51 C369.59,302.41 374.39,302.44 375.95,300.56 C377.24,299.00 376.24,297.21 368.93,288.00 C366.97,285.52 363.59,280.93 361.43,277.80 C359.27,274.66 356.47,271.62 355.20,271.05 C353.82,270.41 343.82,270.00 329.98,270.00 L 307.05 270.00 L 304.14 273.25 C302.54,275.04 298.23,280.50 294.56,285.40 C290.90,290.29 286.79,295.16 285.45,296.22 C283.10,298.07 282.26,300.93 283.67,302.33 C284.03,302.70 286.35,303.00 288.82,303.00 C292.71,303.00 293.79,302.50 296.90,299.22 ZM 449.76 298.88 C452.72,296.01 454.00,293.94 454.00,292.02 C454.00,288.88 449.70,284.00 446.94,284.00 C445.95,284.00 444.47,283.33 443.64,282.50 C442.42,281.28 438.82,281.00 424.24,281.00 C408.99,281.00 406.33,280.78 406.33,279.50 C406.33,278.21 409.39,278.00 427.84,278.00 C446.44,278.00 449.59,277.78 451.17,276.35 C453.16,274.54 453.55,271.95 452.05,270.45 C451.48,269.87 440.85,269.70 424.96,270.00 L 398.82 270.50 L 396.41 273.31 C395.09,274.85 394.00,277.38 394.00,278.92 C394.00,281.85 397.34,287.00 399.24,287.00 C399.85,287.00 401.21,287.79 402.27,288.75 C403.95,290.27 406.86,290.55 424.10,290.84 C440.39,291.12 444.00,291.44 444.00,292.59 C444.00,293.76 439.93,294.00 419.65,294.00 C396.75,294.00 395.21,294.12 393.54,295.96 C392.33,297.29 391.97,298.73 392.40,300.46 L 393.04 303.00 L 419.28 303.00 L 445.52 303.00 L 449.76 298.88 ZM 506.13 301.35 C507.02,300.29 507.68,295.97 508.00,289.10 L 508.50 278.50 L 519.22 278.00 C527.64,277.61 530.31,277.12 531.69,275.75 C533.35,274.08 533.34,273.90 531.47,272.03 C529.61,270.18 527.87,270.07 500.29,269.95 C484.23,269.88 470.62,270.12 470.04,270.47 C468.49,271.43 468.78,274.10 470.65,276.17 C472.06,277.73 473.92,278.00 483.12,278.00 C496.15,278.00 496.11,277.96 495.94,290.74 C495.87,295.56 496.13,300.29 496.52,301.25 C497.45,303.58 504.21,303.65 506.13,301.35 ZM 642.41 301.45 C643.26,300.60 644.63,298.94 645.45,297.77 C646.87,295.74 647.73,295.64 663.83,295.63 L 680.73 295.62 L 683.91 299.24 C686.76,302.49 687.47,302.80 690.79,302.30 C698.14,301.20 697.97,300.48 687.07,286.24 C681.56,279.04 676.04,272.44 674.80,271.57 C671.72,269.42 653.77,269.31 651.82,271.44 C650.45,272.94 648.49,275.73 642.29,285.00 C640.27,288.02 637.57,292.03 636.31,293.89 C633.25,298.38 633.37,300.60 636.75,301.84 C640.52,303.21 640.65,303.21 642.41,301.45 ZM 559.80 300.80 C560.46,300.14 561.00,298.58 561.00,297.34 C561.00,293.94 563.30,293.29 577.24,292.78 C591.12,292.27 591.49,292.38 600.33,299.67 C603.12,301.97 606.33,302.58 609.42,301.39 C611.86,300.46 611.30,298.28 608.00,295.84 C606.35,294.62 605.00,293.12 605.00,292.51 C605.00,291.89 606.58,289.87 608.50,288.00 C612.41,284.21 612.98,280.79 610.48,275.97 C607.54,270.27 605.64,269.94 577.77,270.23 L 552.50 270.50 L 552.22 284.95 C552.07,292.90 552.17,299.99 552.44,300.70 C553.07,302.33 558.20,302.40 559.80,300.80 ZM 195.65 294.75 C198.93,291.31 203.00,286.48 204.69,284.00 C206.38,281.52 208.72,278.64 209.88,277.60 C211.05,276.55 212.00,274.63 212.00,273.35 L 212.00 271.00 L 189.11 271.00 L 166.22 271.00 L 155.91 282.25 C150.24,288.44 144.52,294.70 143.19,296.17 C141.87,297.64 141.08,299.32 141.45,299.92 C141.90,300.64 149.93,301.00 165.90,301.00 L 189.68 301.00 L 195.65 294.75 ZM 214.03 296.58 C216.31,294.15 220.08,289.54 222.42,286.33 C224.76,283.12 227.45,279.86 228.40,279.07 C230.60,277.26 233.12,272.45 232.29,271.63 C231.95,271.28 230.42,271.00 228.89,271.00 C226.85,271.00 225.24,272.08 222.81,275.09 C220.99,277.34 216.63,282.63 213.11,286.84 C205.13,296.41 203.66,298.64 204.47,299.96 C205.94,302.34 209.97,300.91 214.03,296.58 ZM 266.59 300.23 C270.30,297.75 289.00,274.14 289.00,271.95 C289.00,271.43 287.51,271.00 285.69,271.00 C282.91,271.00 281.60,271.91 277.44,276.71 C268.70,286.82 261.00,297.36 261.00,299.20 C261.00,301.06 264.42,301.69 266.59,300.23 ZM 605.73 369.00 C603.93,366.90 598.58,366.25 597.50,368.00 C597.11,368.62 595.82,368.44 593.99,367.50 C592.40,366.67 590.18,366.00 589.05,366.00 C587.90,366.00 587.00,365.35 587.00,364.52 C587.00,363.70 584.78,361.91 582.07,360.54 C576.28,357.60 575.55,356.69 577.05,354.29 C578.12,352.58 584.80,352.51 725.53,352.81 C861.97,353.10 873.08,352.99 875.44,351.44 C876.85,350.52 878.00,348.98 878.00,348.01 C878.00,345.92 875.49,343.58 874.15,344.41 C873.63,344.73 872.93,344.26 872.59,343.38 C872.05,341.97 870.62,341.85 861.24,342.49 C855.33,342.89 850.25,343.61 849.95,344.09 C849.42,344.94 567.16,345.50 566.32,344.66 C566.10,344.43 565.82,342.95 565.70,341.37 L 565.50 338.50 L 708.70 337.78 L 851.91 337.07 L 854.37 334.92 C857.25,332.42 858.41,328.76 857.12,326.26 C852.16,316.70 850.58,306.18 851.48,288.74 C852.04,277.80 852.76,272.97 854.66,267.29 C856.91,260.60 861.57,251.31 865.46,245.76 C868.23,241.80 867.29,246.49 864.00,253.00 C862.35,256.27 861.00,259.43 861.00,260.02 C861.00,260.61 860.10,262.96 859.00,265.24 C857.42,268.51 857.00,271.42 857.00,279.13 C857.00,284.55 857.44,289.16 858.00,289.50 C858.55,289.84 859.01,294.03 859.01,298.81 C859.04,313.78 861.58,318.80 876.55,333.45 C887.86,344.51 888.95,346.06 887.59,349.16 C887.19,350.07 887.00,355.14 887.18,360.42 C887.47,369.00 887.31,370.09 885.68,370.61 C883.99,371.14 881.12,368.74 881.03,366.74 C881.01,366.32 878.49,364.37 875.42,362.40 C870.22,359.08 869.48,358.89 864.67,359.56 C861.83,359.96 813.83,360.59 758.00,360.96 L 656.50 361.63 L 649.50 364.45 C645.65,365.99 640.61,367.78 638.30,368.42 C635.99,369.05 633.78,369.89 633.38,370.28 C632.99,370.68 626.99,371.00 620.06,371.00 C608.68,371.00 607.28,370.80 605.73,369.00 ZM 794.01 308.79 C794.00,308.40 792.31,307.58 790.25,306.98 C784.46,305.28 780.60,302.61 779.52,299.57 C778.74,297.36 778.89,296.56 780.25,295.56 C781.63,294.55 783.33,294.67 789.23,296.17 C793.23,297.18 797.29,297.83 798.25,297.60 C799.21,297.37 800.00,297.52 800.00,297.94 C800.00,299.21 807.48,301.00 812.83,301.00 C816.98,301.00 818.14,301.39 819.05,303.09 C819.67,304.24 819.90,306.27 819.56,307.61 C818.96,310.02 818.94,310.02 806.49,309.76 C799.63,309.62 794.02,309.18 794.01,308.79 ZM 815.50 290.00 C815.16,289.45 813.50,289.00 811.81,289.00 C810.12,289.00 805.31,287.88 801.12,286.51 C796.93,285.15 791.70,283.57 789.50,283.01 C784.15,281.64 780.97,279.02 780.61,275.66 C780.24,272.11 781.85,261.76 782.95,260.65 C784.24,259.36 787.13,260.66 791.00,264.28 C798.50,271.30 806.84,277.10 810.23,277.65 C815.34,278.48 818.19,276.63 817.81,272.73 C817.57,270.32 816.45,268.83 813.00,266.35 C800.20,257.15 788.28,245.95 787.35,242.25 C787.01,240.91 787.72,236.41 788.93,232.17 C792.84,218.51 794.28,216.67 797.47,221.25 C802.02,227.77 805.94,234.26 806.56,236.25 C807.76,240.08 814.09,248.97 817.47,251.55 C822.76,255.58 827.88,254.04 827.97,248.41 C828.00,246.44 822.68,237.60 818.09,232.00 C816.97,230.62 816.03,229.01 816.02,228.40 C816.01,227.80 815.10,226.50 814.00,225.50 C812.90,224.50 812.00,223.15 812.00,222.50 C812.00,221.84 810.68,219.48 809.07,217.26 C806.14,213.21 803.00,204.54 803.00,200.49 C803.00,196.95 807.86,186.10 811.90,180.63 C813.99,177.81 816.42,174.09 817.31,172.37 C819.15,168.81 821.94,167.30 823.15,169.22 C823.60,169.92 823.98,175.13 823.98,180.78 C824.01,198.61 829.94,222.38 835.51,227.00 C837.72,228.84 840.50,227.11 840.50,223.89 C840.50,222.58 840.92,221.20 841.44,220.82 C842.49,220.07 841.04,211.78 838.33,203.00 C836.93,198.50 836.64,193.69 836.74,176.50 L 836.85 155.50 L 840.03 148.55 C842.49,143.15 845.13,139.68 851.85,133.00 C865.13,119.79 873.07,112.85 874.34,113.32 C875.75,113.84 876.10,112.48 870.00,130.00 C861.87,153.36 861.26,155.25 860.18,160.50 C859.61,163.25 858.61,170.90 857.94,177.50 C856.53,191.59 857.42,196.96 861.48,198.81 C866.63,201.16 869.00,197.76 869.00,188.04 C869.00,184.84 869.86,177.78 870.91,172.36 C871.96,166.94 873.10,160.83 873.45,158.79 C873.79,156.75 874.73,153.83 875.53,152.29 C876.33,150.76 876.99,148.48 876.99,147.24 C877.00,146.00 877.89,143.07 878.97,140.74 C880.06,138.41 882.49,132.23 884.37,127.00 C886.26,121.78 889.64,114.47 891.90,110.77 C894.15,107.07 896.00,103.79 896.00,103.50 C896.00,101.05 902.02,94.47 907.51,90.92 C916.32,85.22 936.54,77.03 941.89,76.99 C942.78,76.98 947.10,76.09 951.50,75.00 C955.90,73.91 960.06,73.02 960.75,73.01 C962.88,72.99 962.12,76.87 959.75,78.10 C954.16,80.99 925.68,112.86 916.04,127.00 C913.60,130.57 909.78,136.13 907.55,139.34 C902.13,147.17 902.14,147.14 901.00,150.00 C900.45,151.38 898.13,155.88 895.84,160.00 C893.55,164.12 890.39,170.88 888.82,175.00 C887.25,179.12 885.55,183.40 885.06,184.50 C884.56,185.60 883.90,187.62 883.60,189.00 C883.29,190.38 881.73,192.40 880.13,193.50 C878.53,194.60 873.46,198.09 868.86,201.25 C864.26,204.41 859.15,208.65 857.50,210.66 C855.85,212.68 853.35,215.49 851.93,216.91 C846.81,222.08 843.14,227.75 836.70,240.50 C827.91,257.88 824.22,268.25 821.96,281.96 C821.37,285.52 820.41,289.00 819.82,289.71 C818.55,291.25 816.36,291.39 815.50,290.00 ZM 309.00 283.43 C309.00,282.56 309.75,281.10 310.68,280.18 C313.10,277.75 350.62,276.67 351.64,279.00 C352.66,281.31 352.60,283.42 351.50,284.23 C350.95,284.64 341.16,284.98 329.75,284.98 C311.55,285.00 309.00,284.81 309.00,283.43 ZM 654.00 284.76 C654.00,284.24 654.93,282.50 656.07,280.90 C657.87,278.37 658.77,278.00 663.05,278.00 C667.17,278.00 668.21,278.40 669.59,280.49 C672.55,285.01 670.98,286.13 662.01,285.91 C657.61,285.81 654.00,285.29 654.00,284.76 ZM 580.75 284.25 L 563.00 283.95 L 563.00 280.98 L 563.00 278.00 L 580.92 278.00 C590.77,278.00 599.55,277.73 600.42,277.39 C601.67,276.91 602.00,277.51 602.00,280.29 C602.00,282.56 601.44,284.00 600.42,284.39 C599.55,284.73 598.76,284.90 598.67,284.77 C598.58,284.65 590.51,284.42 580.75,284.25 Z" fill="rgb(254,254,254)"/>
</g>
</svg>